<?xml version="1.0" encoding="UTF-8"?>
<svg xmlns="http://www.w3.org/2000/svg" viewBox="0 0 800 600">
  <defs>
    <!-- Gradients for professional styling -->
    <linearGradient id="climateGradient" x1="0%" y1="0%" x2="100%" y2="0%">
      <stop offset="0%" style="stop-color:#2166ac;stop-opacity:1" />
      <stop offset="100%" style="stop-color:#4393c3;stop-opacity:1" />
    </linearGradient>
    <linearGradient id="interactionGradient" x1="0%" y1="0%" x2="100%" y2="0%">
      <stop offset="0%" style="stop-color:#b2182b;stop-opacity:1" />
      <stop offset="100%" style="stop-color:#d6604d;stop-opacity:1" />
    </linearGradient>
    <linearGradient id="demographicGradient" x1="0%" y1="0%" x2="100%" y2="0%">
      <stop offset="0%" style="stop-color:#762a83;stop-opacity:1" />
      <stop offset="100%" style="stop-color:#9970ab;stop-opacity:1" />
    </linearGradient>
    <!-- Drop shadow filter -->
    <filter id="dropshadow" x="-20%" y="-20%" width="140%" height="140%">
      <feDropShadow dx="2" dy="2" stdDeviation="2" flood-color="#00000020"/>
    </filter>
  </defs>
  
  <!-- Background -->
  <rect width="800" height="600" fill="#ffffff"/>
  
  <!-- Title -->
  <text x="400" y="30" text-anchor="middle" font-family="Arial, sans-serif" font-size="18" font-weight="bold" fill="#2c3e50">
    Figure 1: XAI Feature Importance Hierarchy for Climate-Health Relationships
  </text>
  
  <!-- Subtitle -->
  <text x="400" y="50" text-anchor="middle" font-family="Arial, sans-serif" font-size="12" fill="#7f8c8d">
    SHAP importance values for top 10 predictors (R² = 0.393, n = 2,731)
  </text>
  
  <!-- Y-axis -->
  <line x1="80" y1="70" x2="80" y2="480" stroke="#34495e" stroke-width="2"/>
  
  <!-- X-axis -->
  <line x1="80" y1="480" x2="750" y2="480" stroke="#34495e" stroke-width="2"/>
  
  <!-- Y-axis label -->
  <text x="25" y="275" text-anchor="middle" font-family="Arial, sans-serif" font-size="12" fill="#2c3e50" transform="rotate(-90 25 275)">
    SHAP Importance Value
  </text>
  
  <!-- X-axis label -->
  <text x="415" y="520" text-anchor="middle" font-family="Arial, sans-serif" font-size="12" fill="#2c3e50">
    Climate-Health Predictors
  </text>
  
  <!-- Y-axis ticks and labels -->
  <g font-family="Arial, sans-serif" font-size="10" fill="#2c3e50">
    <line x1="75" y1="480" x2="85" y2="480" stroke="#34495e"/>
    <text x="70" y="485" text-anchor="end">0</text>
    
    <line x1="75" y1="440" x2="85" y2="440" stroke="#34495e"/>
    <text x="70" y="445" text-anchor="end">5</text>
    
    <line x1="75" y1="400" x2="85" y2="400" stroke="#34495e"/>
    <text x="70" y="405" text-anchor="end">10</text>
    
    <line x1="75" y1="360" x2="85" y2="360" stroke="#34495e"/>
    <text x="70" y="365" text-anchor="end">15</text>
    
    <line x1="75" y1="320" x2="85" y2="320" stroke="#34495e"/>
    <text x="70" y="325" text-anchor="end">20</text>
  </g>
  
  <!-- Feature bars with error bars -->
  <g class="feature-bars">
    <!-- Feature 1: temperature_tas_lag10_x_Race -->
    <rect x="90" y="321.7" width="50" height="158.3" fill="url(#interactionGradient)" filter="url(#dropshadow)"/>
    <line x1="115" y1="217.8" x2="115" y2="425.5" stroke="#000000" stroke-width="2"/>
    <line x1="110" y1="217.8" x2="120" y2="217.8" stroke="#000000" stroke-width="2"/>
    <line x1="110" y1="425.5" x2="120" y2="425.5" stroke="#000000" stroke-width="2"/>
    <text x="115" y="500" text-anchor="middle" font-family="Arial, sans-serif" font-size="8" fill="#2c3e50">
      temp_lag10_×_Race
    </text>
    <text x="115" y="310" text-anchor="middle" font-family="Arial, sans-serif" font-size="9" font-weight="bold" fill="#ffffff">
      19.8
    </text>
    
    <!-- Feature 2: temperature_tas_lag21_x_Race -->
    <rect x="150" y="331.2" width="50" height="148.8" fill="url(#interactionGradient)" filter="url(#dropshadow)"/>
    <line x1="175" y1="235.2" x2="175" y2="427.2" stroke="#000000" stroke-width="2"/>
    <line x1="170" y1="235.2" x2="180" y2="235.2" stroke="#000000" stroke-width="2"/>
    <line x1="170" y1="427.2" x2="180" y2="427.2" stroke="#000000" stroke-width="2"/>
    <text x="175" y="500" text-anchor="middle" font-family="Arial, sans-serif" font-size="8" fill="#2c3e50">
      temp_lag21_×_Race
    </text>
    <text x="175" y="320" text-anchor="middle" font-family="Arial, sans-serif" font-size="9" font-weight="bold" fill="#ffffff">
      18.6
    </text>
    
    <!-- Feature 3: temperature_tas_lag2_x_Race -->
    <rect x="210" y="356.7" width="50" height="123.3" fill="url(#interactionGradient)" filter="url(#dropshadow)"/>
    <line x1="235" y1="273.3" x2="235" y2="440.1" stroke="#000000" stroke-width="2"/>
    <line x1="230" y1="273.3" x2="240" y2="273.3" stroke="#000000" stroke-width="2"/>
    <line x1="230" y1="440.1" x2="240" y2="440.1" stroke="#000000" stroke-width="2"/>
    <text x="235" y="500" text-anchor="middle" font-family="Arial, sans-serif" font-size="8" fill="#2c3e50">
      temp_lag2_×_Race
    </text>
    <text x="235" y="345" text-anchor="middle" font-family="Arial, sans-serif" font-size="9" font-weight="bold" fill="#ffffff">
      15.4
    </text>
    
    <!-- Feature 4: temperature_tas_lag21 -->
    <rect x="270" y="365.3" width="50" height="114.7" fill="url(#climateGradient)" filter="url(#dropshadow)"/>
    <line x1="295" y1="269.2" x2="295" y2="461.4" stroke="#000000" stroke-width="2"/>
    <line x1="290" y1="269.2" x2="300" y2="269.2" stroke="#000000" stroke-width="2"/>
    <line x1="290" y1="461.4" x2="300" y2="461.4" stroke="#000000" stroke-width="2"/>
    <text x="295" y="500" text-anchor="middle" font-family="Arial, sans-serif" font-size="8" fill="#2c3e50">
      temp_lag21
    </text>
    <text x="295" y="355" text-anchor="middle" font-family="Arial, sans-serif" font-size="9" font-weight="bold" fill="#ffffff">
      14.3
    </text>
    
    <!-- Feature 5: temperature_tas_lag0_x_Race -->
    <rect x="330" y="374.1" width="50" height="105.9" fill="url(#interactionGradient)" filter="url(#dropshadow)"/>
    <line x1="355" y1="288.7" x2="355" y2="459.5" stroke="#000000" stroke-width="2"/>
    <line x1="350" y1="288.7" x2="360" y2="288.7" stroke="#000000" stroke-width="2"/>
    <line x1="350" y1="459.5" x2="360" y2="459.5" stroke="#000000" stroke-width="2"/>
    <text x="355" y="500" text-anchor="middle" font-family="Arial, sans-serif" font-size="8" fill="#2c3e50">
      temp_lag0_×_Race
    </text>
    <text x="355" y="365" text-anchor="middle" font-family="Arial, sans-serif" font-size="9" font-weight="bold" fill="#ffffff">
      13.3
    </text>
    
    <!-- Feature 6: temperature_tas_lag14_x_Race -->
    <rect x="390" y="384.7" width="50" height="95.3" fill="url(#interactionGradient)" filter="url(#dropshadow)"/>
    <line x1="415" y1="309.9" x2="415" y2="459.5" stroke="#000000" stroke-width="2"/>
    <line x1="410" y1="309.9" x2="420" y2="309.9" stroke="#000000" stroke-width="2"/>
    <line x1="410" y1="459.5" x2="420" y2="459.5" stroke="#000000" stroke-width="2"/>
    <text x="415" y="500" text-anchor="middle" font-family="Arial, sans-serif" font-size="8" fill="#2c3e50">
      temp_lag14_×_Race
    </text>
    <text x="415" y="375" text-anchor="middle" font-family="Arial, sans-serif" font-size="9" font-weight="bold" fill="#ffffff">
      11.9
    </text>
    
    <!-- Feature 7: temperature_tas_lag7_x_Race -->
    <rect x="450" y="386.2" width="50" height="93.8" fill="url(#interactionGradient)" filter="url(#dropshadow)"/>
    <line x1="475" y1="324.4" x2="475" y2="448.0" stroke="#000000" stroke-width="2"/>
    <line x1="470" y1="324.4" x2="480" y2="324.4" stroke="#000000" stroke-width="2"/>
    <line x1="470" y1="448.0" x2="480" y2="448.0" stroke="#000000" stroke-width="2"/>
    <text x="475" y="500" text-anchor="middle" font-family="Arial, sans-serif" font-size="8" fill="#2c3e50">
      temp_lag7_×_Race
    </text>
    <text x="475" y="377" text-anchor="middle" font-family="Arial, sans-serif" font-size="9" font-weight="bold" fill="#ffffff">
      11.7
    </text>
    
    <!-- Feature 8: temperature_tas_lag3_x_Race -->
    <rect x="510" y="387.1" width="50" height="92.9" fill="url(#interactionGradient)" filter="url(#dropshadow)"/>
    <line x1="535" y1="313.6" x2="535" y2="460.6" stroke="#000000" stroke-width="2"/>
    <line x1="530" y1="313.6" x2="540" y2="313.6" stroke="#000000" stroke-width="2"/>
    <line x1="530" y1="460.6" x2="540" y2="460.6" stroke="#000000" stroke-width="2"/>
    <text x="535" y="500" text-anchor="middle" font-family="Arial, sans-serif" font-size="8" fill="#2c3e50">
      temp_lag3_×_Race
    </text>
    <text x="535" y="378" text-anchor="middle" font-family="Arial, sans-serif" font-size="9" font-weight="bold" fill="#ffffff">
      11.6
    </text>
    
    <!-- Feature 9: temperature_tas_lag2 -->
    <rect x="570" y="387.9" width="50" height="92.1" fill="url(#climateGradient)" filter="url(#dropshadow)"/>
    <line x1="595" y1="304.6" x2="595" y2="471.2" stroke="#000000" stroke-width="2"/>
    <line x1="590" y1="304.6" x2="600" y2="304.6" stroke="#000000" stroke-width="2"/>
    <line x1="590" y1="471.2" x2="600" y2="471.2" stroke="#000000" stroke-width="2"/>
    <text x="595" y="500" text-anchor="middle" font-family="Arial, sans-serif" font-size="8" fill="#2c3e50">
      temp_lag2
    </text>
    <text x="595" y="378" text-anchor="middle" font-family="Arial, sans-serif" font-size="9" font-weight="bold" fill="#ffffff">
      11.5
    </text>
    
    <!-- Feature 10: temperature_tas_lag1_x_Race -->
    <rect x="630" y="388.6" width="50" height="91.4" fill="url(#interactionGradient)" filter="url(#dropshadow)"/>
    <line x1="655" y1="309.2" x2="655" y2="467.8" stroke="#000000" stroke-width="2"/>
    <line x1="650" y1="309.2" x2="660" y2="309.2" stroke="#000000" stroke-width="2"/>
    <line x1="650" y1="467.8" x2="660" y2="467.8" stroke="#000000" stroke-width="2"/>
    <text x="655" y="500" text-anchor="middle" font-family="Arial, sans-serif" font-size="8" fill="#2c3e50">
      temp_lag1_×_Race
    </text>
    <text x="655" y="378" text-anchor="middle" font-family="Arial, sans-serif" font-size="9" font-weight="bold" fill="#ffffff">
      11.4
    </text>
  </g>
  
  <!-- Legend -->
  <g class="legend">
    <rect x="550" y="80" width="200" height="80" fill="#f8f9fa" stroke="#dee2e6" stroke-width="1" rx="5"/>
    <text x="560" y="100" font-family="Arial, sans-serif" font-size="12" font-weight="bold" fill="#2c3e50">Feature Types</text>
    
    <rect x="560" y="110" width="15" height="10" fill="url(#interactionGradient)"/>
    <text x="580" y="119" font-family="Arial, sans-serif" font-size="10" fill="#2c3e50">Temperature × Race Interactions</text>
    
    <rect x="560" y="125" width="15" height="10" fill="url(#climateGradient)"/>
    <text x="580" y="134" font-family="Arial, sans-serif" font-size="10" fill="#2c3e50">Climate Variables</text>
    
    <line x1="560" y1="145" x2="575" y2="145" stroke="#000000" stroke-width="2"/>
    <line x1="567.5" y1="140" x2="567.5" y2="150" stroke="#000000" stroke-width="2"/>
    <text x="580" y="149" font-family="Arial, sans-serif" font-size="10" fill="#2c3e50">Standard Deviation</text>
  </g>
  
  <!-- Statistical annotations -->
  <text x="400" y="560" text-anchor="middle" font-family="Arial, sans-serif" font-size="10" fill="#7f8c8d">
    Mean absolute SHAP: 8.7 | Cross-validation R² = 0.393 | Training R² = 0.717
  </text>
  
  <!-- Grid lines for easier reading -->
  <g stroke="#ecf0f1" stroke-width="1" opacity="0.5">
    <line x1="80" y1="440" x2="750" y2="440"/>
    <line x1="80" y1="400" x2="750" y2="400"/>
    <line x1="80" y1="360" x2="750" y2="360"/>
    <line x1="80" y1="320" x2="750" y2="320"/>
  </g>
</svg>