<?xml version="1.0" encoding="UTF-8"?>
<svg width="1200" height="800" viewBox="0 0 1200 800" xmlns="http://www.w3.org/2000/svg">
  <defs>
    <!-- Gradients for confidence bands -->
    <linearGradient id="confidenceBand1" x1="0%" y1="0%" x2="100%" y2="0%">
      <stop offset="0%" style="stop-color:#3498db;stop-opacity:0.2"/>
      <stop offset="100%" style="stop-color:#3498db;stop-opacity:0.2"/>
    </linearGradient>
    <linearGradient id="confidenceBand2" x1="0%" y1="0%" x2="100%" y2="0%">
      <stop offset="0%" style="stop-color:#2980b9;stop-opacity:0.2"/>
      <stop offset="100%" style="stop-color:#2980b9;stop-opacity:0.2"/>
    </linearGradient>
    <linearGradient id="confidenceBand3" x1="0%" y1="0%" x2="100%" y2="0%">
      <stop offset="0%" style="stop-color:#e74c3c;stop-opacity:0.2"/>
      <stop offset="100%" style="stop-color:#e74c3c;stop-opacity:0.2"/>
    </linearGradient>
    <linearGradient id="confidenceBand4" x1="0%" y1="0%" x2="100%" y2="0%">
      <stop offset="0%" style="stop-color:#c0392b;stop-opacity:0.2"/>
      <stop offset="100%" style="stop-color:#c0392b;stop-opacity:0.2"/>
    </linearGradient>
    
    <!-- Drop shadow -->
    <filter id="dropshadow" x="-20%" y="-20%" width="140%" height="140%">
      <feDropShadow dx="1" dy="1" stdDeviation="1" flood-color="#000000" flood-opacity="0.3"/>
    </filter>
  </defs>
  
  <!-- Background -->
  <rect width="1200" height="800" fill="#ffffff"/>
  
  <!-- Title -->
  <text x="600" y="35" text-anchor="middle" font-family="Arial, sans-serif" font-size="24" font-weight="bold" fill="#2c3e50">
    Figure 3: Scatterplots and Regression Lines for Validated Climate-Health Relationships
  </text>
  
  <!-- Subtitle -->
  <text x="600" y="55" text-anchor="middle" font-family="Arial, sans-serif" font-size="14" fill="#7f8c8d">
    All relationships show significant correlations with 95% confidence bands (Bonferroni corrected, α = 0.0125)
  </text>
  
  <!-- Panel A: Systolic BP vs Temperature (21-day lag) -->
  <g id="panelA">
    <!-- Panel background -->
    <rect x="80" y="100" width="480" height="300" fill="#f8f9fa" stroke="#dee2e6" stroke-width="2" rx="8"/>
    
    <!-- Panel title -->
    <text x="320" y="125" text-anchor="middle" font-family="Arial, sans-serif" font-size="14" font-weight="bold" fill="#2c3e50">
      A. Systolic BP vs Temperature (21-day lag)
    </text>
    
    <!-- Axes -->
    <line x1="120" y1="360" x2="520" y2="360" stroke="#2c3e50" stroke-width="2"/>
    <line x1="120" y1="150" x2="120" y2="360" stroke="#2c3e50" stroke-width="2"/>
    
    <!-- 95% Confidence band -->
    <polygon points="120,220 520,240 520,260 120,240" fill="url(#confidenceBand1)" opacity="0.5"/>
    
    <!-- Regression line -->
    <line x1="120" y1="230" x2="520" y2="250" stroke="#3498db" stroke-width="3" filter="url(#dropshadow)"/>
    
    <!-- Simulated data points -->
    <circle cx="140" cy="225" r="2" fill="#3498db" opacity="0.6"/>
    <circle cx="160" cy="235" r="2" fill="#3498db" opacity="0.6"/>
    <circle cx="180" cy="228" r="2" fill="#3498db" opacity="0.6"/>
    <circle cx="200" cy="242" r="2" fill="#3498db" opacity="0.6"/>
    <circle cx="220" cy="238" r="2" fill="#3498db" opacity="0.6"/>
    <circle cx="240" cy="245" r="2" fill="#3498db" opacity="0.6"/>
    <circle cx="260" cy="240" r="2" fill="#3498db" opacity="0.6"/>
    <circle cx="280" cy="248" r="2" fill="#3498db" opacity="0.6"/>
    <circle cx="300" cy="242" r="2" fill="#3498db" opacity="0.6"/>
    <circle cx="320" cy="252" r="2" fill="#3498db" opacity="0.6"/>
    <circle cx="340" cy="247" r="2" fill="#3498db" opacity="0.6"/>
    <circle cx="360" cy="255" r="2" fill="#3498db" opacity="0.6"/>
    <circle cx="380" cy="250" r="2" fill="#3498db" opacity="0.6"/>
    <circle cx="400" cy="258" r="2" fill="#3498db" opacity="0.6"/>
    <circle cx="420" cy="253" r="2" fill="#3498db" opacity="0.6"/>
    <circle cx="440" cy="260" r="2" fill="#3498db" opacity="0.6"/>
    <circle cx="460" cy="255" r="2" fill="#3498db" opacity="0.6"/>
    <circle cx="480" cy="262" r="2" fill="#3498db" opacity="0.6"/>
    <circle cx="500" cy="258" r="2" fill="#3498db" opacity="0.6"/>
    
    <!-- X-axis labels -->
    <text x="120" y="378" text-anchor="middle" font-family="Arial, sans-serif" font-size="10" fill="#495057">15°C</text>
    <text x="220" y="378" text-anchor="middle" font-family="Arial, sans-serif" font-size="10" fill="#495057">20°C</text>
    <text x="320" y="378" text-anchor="middle" font-family="Arial, sans-serif" font-size="10" fill="#495057">25°C</text>
    <text x="420" y="378" text-anchor="middle" font-family="Arial, sans-serif" font-size="10" fill="#495057">30°C</text>
    <text x="520" y="378" text-anchor="middle" font-family="Arial, sans-serif" font-size="10" fill="#495057">35°C</text>
    
    <!-- Y-axis labels -->
    <text x="110" y="160" text-anchor="end" font-family="Arial, sans-serif" font-size="10" fill="#495057">150</text>
    <text x="110" y="210" text-anchor="end" font-family="Arial, sans-serif" font-size="10" fill="#495057">140</text>
    <text x="110" y="260" text-anchor="end" font-family="Arial, sans-serif" font-size="10" fill="#495057">130</text>
    <text x="110" y="310" text-anchor="end" font-family="Arial, sans-serif" font-size="10" fill="#495057">120</text>
    <text x="110" y="360" text-anchor="end" font-family="Arial, sans-serif" font-size="10" fill="#495057">110</text>
    
    <!-- Axis titles -->
    <text x="320" y="395" text-anchor="middle" font-family="Arial, sans-serif" font-size="12" fill="#2c3e50">Temperature (°C)</text>
    <text x="65" y="255" text-anchor="middle" font-family="Arial, sans-serif" font-size="12" fill="#2c3e50" transform="rotate(-90, 65, 255)">Systolic BP (mmHg)</text>
    
    <!-- Statistics box -->
    <rect x="130" y="160" width="120" height="60" fill="#ffffff" stroke="#3498db" stroke-width="1" rx="3"/>
    <text x="140" y="175" font-family="Arial, sans-serif" font-size="10" font-weight="bold" fill="#2c3e50">r = -0.114***</text>
    <text x="140" y="188" font-family="Arial, sans-serif" font-size="9" fill="#2c3e50">p = 8.79×10⁻¹⁶</text>
    <text x="140" y="201" font-family="Arial, sans-serif" font-size="9" fill="#2c3e50">n = 4,957</text>
    <text x="140" y="214" font-family="Arial, sans-serif" font-size="9" fill="#2c3e50">95% CI: [-0.141, -0.088]</text>
  </g>
  
  <!-- Panel B: Systolic BP vs Apparent Temperature (21-day lag) -->
  <g id="panelB">
    <!-- Panel background -->
    <rect x="640" y="100" width="480" height="300" fill="#f8f9fa" stroke="#dee2e6" stroke-width="2" rx="8"/>
    
    <!-- Panel title -->
    <text x="880" y="125" text-anchor="middle" font-family="Arial, sans-serif" font-size="14" font-weight="bold" fill="#2c3e50">
      B. Systolic BP vs Apparent Temperature (21-day lag)
    </text>
    
    <!-- Axes -->
    <line x1="680" y1="360" x2="1080" y2="360" stroke="#2c3e50" stroke-width="2"/>
    <line x1="680" y1="150" x2="680" y2="360" stroke="#2c3e50" stroke-width="2"/>
    
    <!-- 95% Confidence band -->
    <polygon points="680,222 1080,242 1080,262 680,242" fill="url(#confidenceBand2)" opacity="0.5"/>
    
    <!-- Regression line -->
    <line x1="680" y1="232" x2="1080" y2="252" stroke="#2980b9" stroke-width="3" filter="url(#dropshadow)"/>
    
    <!-- Simulated data points -->
    <circle cx="700" cy="227" r="2" fill="#2980b9" opacity="0.6"/>
    <circle cx="720" cy="237" r="2" fill="#2980b9" opacity="0.6"/>
    <circle cx="740" cy="230" r="2" fill="#2980b9" opacity="0.6"/>
    <circle cx="760" cy="244" r="2" fill="#2980b9" opacity="0.6"/>
    <circle cx="780" cy="240" r="2" fill="#2980b9" opacity="0.6"/>
    <circle cx="800" cy="247" r="2" fill="#2980b9" opacity="0.6"/>
    <circle cx="820" cy="242" r="2" fill="#2980b9" opacity="0.6"/>
    <circle cx="840" cy="250" r="2" fill="#2980b9" opacity="0.6"/>
    <circle cx="860" cy="244" r="2" fill="#2980b9" opacity="0.6"/>
    <circle cx="880" cy="254" r="2" fill="#2980b9" opacity="0.6"/>
    <circle cx="900" cy="249" r="2" fill="#2980b9" opacity="0.6"/>
    <circle cx="920" cy="257" r="2" fill="#2980b9" opacity="0.6"/>
    <circle cx="940" cy="252" r="2" fill="#2980b9" opacity="0.6"/>
    <circle cx="960" cy="260" r="2" fill="#2980b9" opacity="0.6"/>
    <circle cx="980" cy="255" r="2" fill="#2980b9" opacity="0.6"/>
    <circle cx="1000" cy="262" r="2" fill="#2980b9" opacity="0.6"/>
    <circle cx="1020" cy="257" r="2" fill="#2980b9" opacity="0.6"/>
    <circle cx="1040" cy="264" r="2" fill="#2980b9" opacity="0.6"/>
    <circle cx="1060" cy="260" r="2" fill="#2980b9" opacity="0.6"/>
    
    <!-- X-axis labels -->
    <text x="680" y="378" text-anchor="middle" font-family="Arial, sans-serif" font-size="10" fill="#495057">18°C</text>
    <text x="780" y="378" text-anchor="middle" font-family="Arial, sans-serif" font-size="10" fill="#495057">23°C</text>
    <text x="880" y="378" text-anchor="middle" font-family="Arial, sans-serif" font-size="10" fill="#495057">28°C</text>
    <text x="980" y="378" text-anchor="middle" font-family="Arial, sans-serif" font-size="10" fill="#495057">33°C</text>
    <text x="1080" y="378" text-anchor="middle" font-family="Arial, sans-serif" font-size="10" fill="#495057">38°C</text>
    
    <!-- Y-axis labels -->
    <text x="670" y="160" text-anchor="end" font-family="Arial, sans-serif" font-size="10" fill="#495057">150</text>
    <text x="670" y="210" text-anchor="end" font-family="Arial, sans-serif" font-size="10" fill="#495057">140</text>
    <text x="670" y="260" text-anchor="end" font-family="Arial, sans-serif" font-size="10" fill="#495057">130</text>
    <text x="670" y="310" text-anchor="end" font-family="Arial, sans-serif" font-size="10" fill="#495057">120</text>
    <text x="670" y="360" text-anchor="end" font-family="Arial, sans-serif" font-size="10" fill="#495057">110</text>
    
    <!-- Axis titles -->
    <text x="880" y="395" text-anchor="middle" font-family="Arial, sans-serif" font-size="12" fill="#2c3e50">Apparent Temperature (°C)</text>
    <text x="625" y="255" text-anchor="middle" font-family="Arial, sans-serif" font-size="12" fill="#2c3e50" transform="rotate(-90, 625, 255)">Systolic BP (mmHg)</text>
    
    <!-- Statistics box -->
    <rect x="690" y="160" width="120" height="60" fill="#ffffff" stroke="#2980b9" stroke-width="1" rx="3"/>
    <text x="700" y="175" font-family="Arial, sans-serif" font-size="10" font-weight="bold" fill="#2c3e50">r = -0.113***</text>
    <text x="700" y="188" font-family="Arial, sans-serif" font-size="9" fill="#2c3e50">p = 1.57×10⁻¹⁵</text>
    <text x="700" y="201" font-family="Arial, sans-serif" font-size="9" fill="#2c3e50">n = 4,957</text>
    <text x="700" y="214" font-family="Arial, sans-serif" font-size="9" fill="#2c3e50">95% CI: [-0.141, -0.087]</text>
  </g>
  
  <!-- Panel C: Fasting Glucose vs Land Temperature (3-day lag) -->
  <g id="panelC">
    <!-- Panel background -->
    <rect x="80" y="450" width="480" height="300" fill="#f8f9fa" stroke="#dee2e6" stroke-width="2" rx="8"/>
    
    <!-- Panel title -->
    <text x="320" y="475" text-anchor="middle" font-family="Arial, sans-serif" font-size="14" font-weight="bold" fill="#2c3e50">
      C. Fasting Glucose vs Land Temperature (3-day lag)
    </text>
    
    <!-- Axes -->
    <line x1="120" y1="710" x2="520" y2="710" stroke="#2c3e50" stroke-width="2"/>
    <line x1="120" y1="500" x2="120" y2="710" stroke="#2c3e50" stroke-width="2"/>
    
    <!-- 95% Confidence band -->
    <polygon points="120,620 520,600 520,580 120,600" fill="url(#confidenceBand3)" opacity="0.5"/>
    
    <!-- Regression line -->
    <line x1="120" y1="610" x2="520" y2="590" stroke="#e74c3c" stroke-width="3" filter="url(#dropshadow)"/>
    
    <!-- Simulated data points -->
    <circle cx="140" cy="615" r="2" fill="#e74c3c" opacity="0.6"/>
    <circle cx="160" cy="605" r="2" fill="#e74c3c" opacity="0.6"/>
    <circle cx="180" cy="612" r="2" fill="#e74c3c" opacity="0.6"/>
    <circle cx="200" cy="598" r="2" fill="#e74c3c" opacity="0.6"/>
    <circle cx="220" cy="602" r="2" fill="#e74c3c" opacity="0.6"/>
    <circle cx="240" cy="595" r="2" fill="#e74c3c" opacity="0.6"/>
    <circle cx="260" cy="600" r="2" fill="#e74c3c" opacity="0.6"/>
    <circle cx="280" cy="592" r="2" fill="#e74c3c" opacity="0.6"/>
    <circle cx="300" cy="598" r="2" fill="#e74c3c" opacity="0.6"/>
    <circle cx="320" cy="588" r="2" fill="#e74c3c" opacity="0.6"/>
    <circle cx="340" cy="593" r="2" fill="#e74c3c" opacity="0.6"/>
    <circle cx="360" cy="585" r="2" fill="#e74c3c" opacity="0.6"/>
    <circle cx="380" cy="590" r="2" fill="#e74c3c" opacity="0.6"/>
    <circle cx="400" cy="582" r="2" fill="#e74c3c" opacity="0.6"/>
    <circle cx="420" cy="587" r="2" fill="#e74c3c" opacity="0.6"/>
    <circle cx="440" cy="580" r="2" fill="#e74c3c" opacity="0.6"/>
    <circle cx="460" cy="585" r="2" fill="#e74c3c" opacity="0.6"/>
    <circle cx="480" cy="578" r="2" fill="#e74c3c" opacity="0.6"/>
    <circle cx="500" cy="582" r="2" fill="#e74c3c" opacity="0.6"/>
    
    <!-- X-axis labels -->
    <text x="120" y="728" text-anchor="middle" font-family="Arial, sans-serif" font-size="10" fill="#495057">10°C</text>
    <text x="220" y="728" text-anchor="middle" font-family="Arial, sans-serif" font-size="10" fill="#495057">15°C</text>
    <text x="320" y="728" text-anchor="middle" font-family="Arial, sans-serif" font-size="10" fill="#495057">20°C</text>
    <text x="420" y="728" text-anchor="middle" font-family="Arial, sans-serif" font-size="10" fill="#495057">25°C</text>
    <text x="520" y="728" text-anchor="middle" font-family="Arial, sans-serif" font-size="10" fill="#495057">30°C</text>
    
    <!-- Y-axis labels -->
    <text x="110" y="510" text-anchor="end" font-family="Arial, sans-serif" font-size="10" fill="#495057">120</text>
    <text x="110" y="560" text-anchor="end" font-family="Arial, sans-serif" font-size="10" fill="#495057">110</text>
    <text x="110" y="610" text-anchor="end" font-family="Arial, sans-serif" font-size="10" fill="#495057">100</text>
    <text x="110" y="660" text-anchor="end" font-family="Arial, sans-serif" font-size="10" fill="#495057">90</text>
    <text x="110" y="710" text-anchor="end" font-family="Arial, sans-serif" font-size="10" fill="#495057">80</text>
    
    <!-- Axis titles -->
    <text x="320" y="745" text-anchor="middle" font-family="Arial, sans-serif" font-size="12" fill="#2c3e50">Land Temperature (°C)</text>
    <text x="65" y="605" text-anchor="middle" font-family="Arial, sans-serif" font-size="12" fill="#2c3e50" transform="rotate(-90, 65, 605)">Fasting Glucose (mg/dL)</text>
    
    <!-- Statistics box -->
    <rect x="130" y="510" width="120" height="60" fill="#ffffff" stroke="#e74c3c" stroke-width="1" rx="3"/>
    <text x="140" y="525" font-family="Arial, sans-serif" font-size="10" font-weight="bold" fill="#2c3e50">r = +0.131***</text>
    <text x="140" y="538" font-family="Arial, sans-serif" font-size="9" fill="#2c3e50">p = 5.67×10⁻¹²</text>
    <text x="140" y="551" font-family="Arial, sans-serif" font-size="9" fill="#2c3e50">n = 2,731</text>
    <text x="140" y="564" font-family="Arial, sans-serif" font-size="9" fill="#2c3e50">95% CI: [+0.096, +0.166]</text>
  </g>
  
  <!-- Panel D: Fasting Glucose vs Temperature (immediate) -->
  <g id="panelD">
    <!-- Panel background -->
    <rect x="640" y="450" width="480" height="300" fill="#f8f9fa" stroke="#dee2e6" stroke-width="2" rx="8"/>
    
    <!-- Panel title -->
    <text x="880" y="475" text-anchor="middle" font-family="Arial, sans-serif" font-size="14" font-weight="bold" fill="#2c3e50">
      D. Fasting Glucose vs Temperature (immediate)
    </text>
    
    <!-- Axes -->
    <line x1="680" y1="710" x2="1080" y2="710" stroke="#2c3e50" stroke-width="2"/>
    <line x1="680" y1="500" x2="680" y2="710" stroke="#2c3e50" stroke-width="2"/>
    
    <!-- 95% Confidence band -->
    <polygon points="680,625 1080,605 1080,585 680,605" fill="url(#confidenceBand4)" opacity="0.5"/>
    
    <!-- Regression line -->
    <line x1="680" y1="615" x2="1080" y2="595" stroke="#c0392b" stroke-width="3" filter="url(#dropshadow)"/>
    
    <!-- Simulated data points -->
    <circle cx="700" cy="620" r="2" fill="#c0392b" opacity="0.6"/>
    <circle cx="720" cy="610" r="2" fill="#c0392b" opacity="0.6"/>
    <circle cx="740" cy="617" r="2" fill="#c0392b" opacity="0.6"/>
    <circle cx="760" cy="603" r="2" fill="#c0392b" opacity="0.6"/>
    <circle cx="780" cy="607" r="2" fill="#c0392b" opacity="0.6"/>
    <circle cx="800" cy="600" r="2" fill="#c0392b" opacity="0.6"/>
    <circle cx="820" cy="605" r="2" fill="#c0392b" opacity="0.6"/>
    <circle cx="840" cy="597" r="2" fill="#c0392b" opacity="0.6"/>
    <circle cx="860" cy="603" r="2" fill="#c0392b" opacity="0.6"/>
    <circle cx="880" cy="593" r="2" fill="#c0392b" opacity="0.6"/>
    <circle cx="900" cy="598" r="2" fill="#c0392b" opacity="0.6"/>
    <circle cx="920" cy="590" r="2" fill="#c0392b" opacity="0.6"/>
    <circle cx="940" cy="595" r="2" fill="#c0392b" opacity="0.6"/>
    <circle cx="960" cy="587" r="2" fill="#c0392b" opacity="0.6"/>
    <circle cx="980" cy="592" r="2" fill="#c0392b" opacity="0.6"/>
    <circle cx="1000" cy="585" r="2" fill="#c0392b" opacity="0.6"/>
    <circle cx="1020" cy="590" r="2" fill="#c0392b" opacity="0.6"/>
    <circle cx="1040" cy="583" r="2" fill="#c0392b" opacity="0.6"/>
    <circle cx="1060" cy="587" r="2" fill="#c0392b" opacity="0.6"/>
    
    <!-- X-axis labels -->
    <text x="680" y="728" text-anchor="middle" font-family="Arial, sans-serif" font-size="10" fill="#495057">15°C</text>
    <text x="780" y="728" text-anchor="middle" font-family="Arial, sans-serif" font-size="10" fill="#495057">20°C</text>
    <text x="880" y="728" text-anchor="middle" font-family="Arial, sans-serif" font-size="10" fill="#495057">25°C</text>
    <text x="980" y="728" text-anchor="middle" font-family="Arial, sans-serif" font-size="10" fill="#495057">30°C</text>
    <text x="1080" y="728" text-anchor="middle" font-family="Arial, sans-serif" font-size="10" fill="#495057">35°C</text>
    
    <!-- Y-axis labels -->
    <text x="670" y="510" text-anchor="end" font-family="Arial, sans-serif" font-size="10" fill="#495057">120</text>
    <text x="670" y="560" text-anchor="end" font-family="Arial, sans-serif" font-size="10" fill="#495057">110</text>
    <text x="670" y="610" text-anchor="end" font-family="Arial, sans-serif" font-size="10" fill="#495057">100</text>
    <text x="670" y="660" text-anchor="end" font-family="Arial, sans-serif" font-size="10" fill="#495057">90</text>
    <text x="670" y="710" text-anchor="end" font-family="Arial, sans-serif" font-size="10" fill="#495057">80</text>
    
    <!-- Axis titles -->
    <text x="880" y="745" text-anchor="middle" font-family="Arial, sans-serif" font-size="12" fill="#2c3e50">Temperature (°C)</text>
    <text x="625" y="605" text-anchor="middle" font-family="Arial, sans-serif" font-size="12" fill="#2c3e50" transform="rotate(-90, 625, 605)">Fasting Glucose (mg/dL)</text>
    
    <!-- Statistics box -->
    <rect x="690" y="510" width="120" height="60" fill="#ffffff" stroke="#c0392b" stroke-width="1" rx="3"/>
    <text x="700" y="525" font-family="Arial, sans-serif" font-size="10" font-weight="bold" fill="#2c3e50">r = +0.118***</text>
    <text x="700" y="538" font-family="Arial, sans-serif" font-size="9" fill="#2c3e50">p = 6.32×10⁻¹⁰</text>
    <text x="700" y="551" font-family="Arial, sans-serif" font-size="9" fill="#2c3e50">n = 2,731</text>
    <text x="700" y="564" font-family="Arial, sans-serif" font-size="9" fill="#2c3e50">95% CI: [+0.080, +0.152]</text>
  </g>
  
  <!-- Global legend -->
  <g id="global-legend">
    <rect x="450" y="75" width="300" height="25" fill="#ffffff" stroke="#dee2e6" stroke-width="1" rx="3"/>
    <circle cx="460" cy="87" r="2" fill="#3498db" opacity="0.6"/>
    <text x="470" y="92" font-family="Arial, sans-serif" font-size="10" fill="#2c3e50">Data points</text>
    <line x1="520" y1="87" x2="540" y2="87" stroke="#2c3e50" stroke-width="2"/>
    <text x="545" y="92" font-family="Arial, sans-serif" font-size="10" fill="#2c3e50">Regression line</text>
    <polygon points="600,85 620,85 620,89 600,89" fill="#3498db" opacity="0.3"/>
    <text x="625" y="92" font-family="Arial, sans-serif" font-size="10" fill="#2c3e50">95% Confidence band</text>
    <text x="720" y="92" font-family="Arial, sans-serif" font-size="10" fill="#2c3e50">*** p &lt; 0.001</text>
  </g>
  
  <!-- Caption -->
  <text x="50" y="775" font-family="Arial, sans-serif" font-size="11" fill="#2c3e50">
    <tspan font-weight="bold">Figure 3.</tspan> Scatterplots showing the four validated climate-health relationships with regression lines and 95% confidence bands.
  </text>
  <text x="50" y="790" font-family="Arial, sans-serif" font-size="11" fill="#2c3e50">
    All correlations remain significant after Bonferroni correction for multiple testing (α = 0.0125) with statistical power ≥ 0.999.
  </text>
  
</svg>