<?xml version="1.0" encoding="utf-8" standalone="no"?>
<!DOCTYPE svg PUBLIC "-//W3C//DTD SVG 1.1//EN"
  "http://www.w3.org/Graphics/SVG/1.1/DTD/svg11.dtd">
<svg xmlns:xlink="http://www.w3.org/1999/xlink" width="1000.569375pt" height="426.291875pt" viewBox="0 0 1000.569375 426.291875" xmlns="http://www.w3.org/2000/svg" version="1.1">
 <metadata>
  <rdf:RDF xmlns:dc="http://purl.org/dc/elements/1.1/" xmlns:cc="http://creativecommons.org/ns#" xmlns:rdf="http://www.w3.org/1999/02/22-rdf-syntax-ns#">
   <cc:Work>
    <dc:type rdf:resource="http://purl.org/dc/dcmitype/StillImage"/>
    <dc:date>2025-09-24T22:22:54.489547</dc:date>
    <dc:format>image/svg+xml</dc:format>
    <dc:creator>
     <cc:Agent>
      <dc:title>Matplotlib v3.9.2, https://matplotlib.org/</dc:title>
     </cc:Agent>
    </dc:creator>
   </cc:Work>
  </rdf:RDF>
 </metadata>
 <defs>
  <style type="text/css">*{stroke-linejoin: round; stroke-linecap: butt}</style>
 </defs>
 <g id="figure_1">
  <g id="patch_1">
   <path d="M 0 426.291875 
L 1000.569375 426.291875 
L 1000.569375 0 
L 0 0 
z
" style="fill: #ffffff"/>
  </g>
  <g id="axes_1">
   <g id="patch_2">
    <path d="M 52.079375 386.8 
L 497.941875 386.8 
L 497.941875 68.64 
L 52.079375 68.64 
z
" style="fill: #ffffff"/>
   </g>
   <g id="PolyCollection_1">
    <defs>
     <path id="m133c206bb1" d="M 72.345852 -158.801875 
L 72.345852 -79.261875 
L 76.44009 -79.261875 
L 80.534328 -79.261875 
L 84.628566 -79.261875 
L 88.722804 -79.261875 
L 92.817041 -79.261875 
L 96.911279 -79.261875 
L 101.005517 -79.261875 
L 105.099755 -79.261875 
L 109.193993 -79.261875 
L 113.288231 -79.261875 
L 117.382468 -79.261876 
L 121.476706 -79.261876 
L 125.570944 -79.261877 
L 129.665182 -79.261878 
L 133.75942 -79.26188 
L 137.853658 -79.261884 
L 141.947895 -79.26189 
L 146.042133 -79.2619 
L 150.136371 -79.261917 
L 154.230609 -79.261943 
L 158.324847 -79.261984 
L 162.419085 -79.26205 
L 166.513322 -79.262152 
L 170.60756 -79.26231 
L 174.701798 -79.262551 
L 178.796036 -79.262917 
L 182.890274 -79.263467 
L 186.984512 -79.264283 
L 191.078749 -79.265486 
L 195.172987 -79.267239 
L 199.267225 -79.269771 
L 203.361463 -79.273391 
L 207.455701 -79.278517 
L 211.549939 -79.285706 
L 215.644176 -79.295688 
L 219.738414 -79.309412 
L 223.832652 -79.328097 
L 227.92689 -79.353283 
L 232.021128 -79.386893 
L 236.115366 -79.4313 
L 240.209603 -79.489381 
L 244.303841 -79.56458 
L 248.398079 -79.660954 
L 252.492317 -79.783201 
L 256.586555 -79.936671 
L 260.680793 -80.127336 
L 264.77503 -80.361728 
L 268.869268 -80.646824 
L 272.963506 -80.98988 
L 277.057744 -81.398204 
L 281.151982 -81.878872 
L 285.24622 -82.438385 
L 289.340457 -83.082278 
L 293.434695 -83.814693 
L 297.528933 -84.637925 
L 301.623171 -85.551985 
L 305.717409 -86.554187 
L 309.811647 -87.638792 
L 313.905884 -88.796754 
L 318.000122 -90.015581 
L 322.09436 -91.279346 
L 326.188598 -92.568871 
L 330.282836 -93.86208 
L 334.377074 -95.13454 
L 338.471311 -96.360168 
L 342.565549 -97.512075 
L 346.659787 -98.563528 
L 350.754025 -99.488963 
L 354.848263 -100.265014 
L 358.942501 -100.871491 
L 363.036738 -101.292249 
L 367.130976 -101.515906 
L 371.225214 -101.536351 
L 375.319452 -101.353023 
L 379.41369 -100.970937 
L 383.507928 -100.400456 
L 387.602165 -99.656822 
L 391.696403 -98.759482 
L 395.790641 -97.731244 
L 399.884879 -96.597311 
L 403.979117 -95.384267 
L 408.073355 -94.119048 
L 412.167592 -92.82797 
L 416.26183 -91.535858 
L 420.356068 -90.265308 
L 424.450306 -89.036111 
L 428.544544 -87.864866 
L 432.638782 -86.764757 
L 436.733019 -85.745512 
L 440.827257 -84.813515 
L 444.921495 -83.972038 
L 449.015733 -83.221577 
L 453.109971 -82.560258 
L 457.204209 -81.984273 
L 461.298446 -81.488331 
L 465.392684 -81.066092 
L 469.486922 -80.710564 
L 473.58116 -80.414462 
L 477.675398 -80.170499 
L 477.675398 -159.710499 
L 477.675398 -159.710499 
L 473.58116 -159.954462 
L 469.486922 -160.250564 
L 465.392684 -160.606092 
L 461.298446 -161.028331 
L 457.204209 -161.524273 
L 453.109971 -162.100258 
L 449.015733 -162.761577 
L 444.921495 -163.512038 
L 440.827257 -164.353515 
L 436.733019 -165.285512 
L 432.638782 -166.304757 
L 428.544544 -167.404866 
L 424.450306 -168.576111 
L 420.356068 -169.805308 
L 416.26183 -171.075858 
L 412.167592 -172.36797 
L 408.073355 -173.659048 
L 403.979117 -174.924267 
L 399.884879 -176.137311 
L 395.790641 -177.271244 
L 391.696403 -178.299482 
L 387.602165 -179.196822 
L 383.507928 -179.940456 
L 379.41369 -180.510937 
L 375.319452 -180.893023 
L 371.225214 -181.076351 
L 367.130976 -181.055906 
L 363.036738 -180.832249 
L 358.942501 -180.411491 
L 354.848263 -179.805014 
L 350.754025 -179.028963 
L 346.659787 -178.103528 
L 342.565549 -177.052075 
L 338.471311 -175.900168 
L 334.377074 -174.67454 
L 330.282836 -173.40208 
L 326.188598 -172.108871 
L 322.09436 -170.819346 
L 318.000122 -169.555581 
L 313.905884 -168.336754 
L 309.811647 -167.178792 
L 305.717409 -166.094187 
L 301.623171 -165.091985 
L 297.528933 -164.177925 
L 293.434695 -163.354693 
L 289.340457 -162.622278 
L 285.24622 -161.978385 
L 281.151982 -161.418872 
L 277.057744 -160.938204 
L 272.963506 -160.52988 
L 268.869268 -160.186824 
L 264.77503 -159.901728 
L 260.680793 -159.667336 
L 256.586555 -159.476671 
L 252.492317 -159.323201 
L 248.398079 -159.200954 
L 244.303841 -159.10458 
L 240.209603 -159.029381 
L 236.115366 -158.9713 
L 232.021128 -158.926893 
L 227.92689 -158.893283 
L 223.832652 -158.868097 
L 219.738414 -158.849412 
L 215.644176 -158.835688 
L 211.549939 -158.825706 
L 207.455701 -158.818517 
L 203.361463 -158.813391 
L 199.267225 -158.809771 
L 195.172987 -158.807239 
L 191.078749 -158.805486 
L 186.984512 -158.804283 
L 182.890274 -158.803467 
L 178.796036 -158.802917 
L 174.701798 -158.802551 
L 170.60756 -158.80231 
L 166.513322 -158.802152 
L 162.419085 -158.80205 
L 158.324847 -158.801984 
L 154.230609 -158.801943 
L 150.136371 -158.801917 
L 146.042133 -158.8019 
L 141.947895 -158.80189 
L 137.853658 -158.801884 
L 133.75942 -158.80188 
L 129.665182 -158.801878 
L 125.570944 -158.801877 
L 121.476706 -158.801876 
L 117.382468 -158.801876 
L 113.288231 -158.801875 
L 109.193993 -158.801875 
L 105.099755 -158.801875 
L 101.005517 -158.801875 
L 96.911279 -158.801875 
L 92.817041 -158.801875 
L 88.722804 -158.801875 
L 84.628566 -158.801875 
L 80.534328 -158.801875 
L 76.44009 -158.801875 
L 72.345852 -158.801875 
z
" style="stroke: #dc2626; stroke-opacity: 0.2"/>
    </defs>
    <g clip-path="url(#p724a76046e)">
     <use xlink:href="#m133c206bb1" x="0" y="426.291875" style="fill: #dc2626; fill-opacity: 0.2; stroke: #dc2626; stroke-opacity: 0.2"/>
    </g>
   </g>
   <g id="matplotlib.axis_1">
    <g id="xtick_1">
     <g id="line2d_1">
      <path d="M 72.345852 386.8 
L 72.345852 68.64 
" clip-path="url(#p724a76046e)" style="fill: none; stroke: #b0b0b0; stroke-opacity: 0.3; stroke-width: 0.8; stroke-linecap: square"/>
     </g>
     <g id="line2d_2">
      <defs>
       <path id="m16c6772329" d="M 0 0 
L 0 3.5 
" style="stroke: #000000; stroke-width: 0.8"/>
      </defs>
      <g>
       <use xlink:href="#m16c6772329" x="72.345852" y="386.8" style="stroke: #000000; stroke-width: 0.8"/>
      </g>
     </g>
     <g id="text_1">
      <!-- 10 -->
      <g transform="translate(65.983352 401.398437) scale(0.1 -0.1)">
       <defs>
        <path id="DejaVuSans-31" d="M 794 531 
L 1825 531 
L 1825 4091 
L 703 3866 
L 703 4441 
L 1819 4666 
L 2450 4666 
L 2450 531 
L 3481 531 
L 3481 0 
L 794 0 
L 794 531 
z
" transform="scale(0.015625)"/>
        <path id="DejaVuSans-30" d="M 2034 4250 
Q 1547 4250 1301 3770 
Q 1056 3291 1056 2328 
Q 1056 1369 1301 889 
Q 1547 409 2034 409 
Q 2525 409 2770 889 
Q 3016 1369 3016 2328 
Q 3016 3291 2770 3770 
Q 2525 4250 2034 4250 
z
M 2034 4750 
Q 2819 4750 3233 4129 
Q 3647 3509 3647 2328 
Q 3647 1150 3233 529 
Q 2819 -91 2034 -91 
Q 1250 -91 836 529 
Q 422 1150 422 2328 
Q 422 3509 836 4129 
Q 1250 4750 2034 4750 
z
" transform="scale(0.015625)"/>
       </defs>
       <use xlink:href="#DejaVuSans-31"/>
       <use xlink:href="#DejaVuSans-30" x="63.623047"/>
      </g>
     </g>
    </g>
    <g id="xtick_2">
     <g id="line2d_3">
      <path d="M 139.900777 386.8 
L 139.900777 68.64 
" clip-path="url(#p724a76046e)" style="fill: none; stroke: #b0b0b0; stroke-opacity: 0.3; stroke-width: 0.8; stroke-linecap: square"/>
     </g>
     <g id="line2d_4">
      <g>
       <use xlink:href="#m16c6772329" x="139.900777" y="386.8" style="stroke: #000000; stroke-width: 0.8"/>
      </g>
     </g>
     <g id="text_2">
      <!-- 15 -->
      <g transform="translate(133.538277 401.398437) scale(0.1 -0.1)">
       <defs>
        <path id="DejaVuSans-35" d="M 691 4666 
L 3169 4666 
L 3169 4134 
L 1269 4134 
L 1269 2991 
Q 1406 3038 1543 3061 
Q 1681 3084 1819 3084 
Q 2600 3084 3056 2656 
Q 3513 2228 3513 1497 
Q 3513 744 3044 326 
Q 2575 -91 1722 -91 
Q 1428 -91 1123 -41 
Q 819 9 494 109 
L 494 744 
Q 775 591 1075 516 
Q 1375 441 1709 441 
Q 2250 441 2565 725 
Q 2881 1009 2881 1497 
Q 2881 1984 2565 2268 
Q 2250 2553 1709 2553 
Q 1456 2553 1204 2497 
Q 953 2441 691 2322 
L 691 4666 
z
" transform="scale(0.015625)"/>
       </defs>
       <use xlink:href="#DejaVuSans-31"/>
       <use xlink:href="#DejaVuSans-35" x="63.623047"/>
      </g>
     </g>
    </g>
    <g id="xtick_3">
     <g id="line2d_5">
      <path d="M 207.455701 386.8 
L 207.455701 68.64 
" clip-path="url(#p724a76046e)" style="fill: none; stroke: #b0b0b0; stroke-opacity: 0.3; stroke-width: 0.8; stroke-linecap: square"/>
     </g>
     <g id="line2d_6">
      <g>
       <use xlink:href="#m16c6772329" x="207.455701" y="386.8" style="stroke: #000000; stroke-width: 0.8"/>
      </g>
     </g>
     <g id="text_3">
      <!-- 20 -->
      <g transform="translate(201.093201 401.398437) scale(0.1 -0.1)">
       <defs>
        <path id="DejaVuSans-32" d="M 1228 531 
L 3431 531 
L 3431 0 
L 469 0 
L 469 531 
Q 828 903 1448 1529 
Q 2069 2156 2228 2338 
Q 2531 2678 2651 2914 
Q 2772 3150 2772 3378 
Q 2772 3750 2511 3984 
Q 2250 4219 1831 4219 
Q 1534 4219 1204 4116 
Q 875 4013 500 3803 
L 500 4441 
Q 881 4594 1212 4672 
Q 1544 4750 1819 4750 
Q 2544 4750 2975 4387 
Q 3406 4025 3406 3419 
Q 3406 3131 3298 2873 
Q 3191 2616 2906 2266 
Q 2828 2175 2409 1742 
Q 1991 1309 1228 531 
z
" transform="scale(0.015625)"/>
       </defs>
       <use xlink:href="#DejaVuSans-32"/>
       <use xlink:href="#DejaVuSans-30" x="63.623047"/>
      </g>
     </g>
    </g>
    <g id="xtick_4">
     <g id="line2d_7">
      <path d="M 275.010625 386.8 
L 275.010625 68.64 
" clip-path="url(#p724a76046e)" style="fill: none; stroke: #b0b0b0; stroke-opacity: 0.3; stroke-width: 0.8; stroke-linecap: square"/>
     </g>
     <g id="line2d_8">
      <g>
       <use xlink:href="#m16c6772329" x="275.010625" y="386.8" style="stroke: #000000; stroke-width: 0.8"/>
      </g>
     </g>
     <g id="text_4">
      <!-- 25 -->
      <g transform="translate(268.648125 401.398437) scale(0.1 -0.1)">
       <use xlink:href="#DejaVuSans-32"/>
       <use xlink:href="#DejaVuSans-35" x="63.623047"/>
      </g>
     </g>
    </g>
    <g id="xtick_5">
     <g id="line2d_9">
      <path d="M 342.565549 386.8 
L 342.565549 68.64 
" clip-path="url(#p724a76046e)" style="fill: none; stroke: #b0b0b0; stroke-opacity: 0.3; stroke-width: 0.8; stroke-linecap: square"/>
     </g>
     <g id="line2d_10">
      <g>
       <use xlink:href="#m16c6772329" x="342.565549" y="386.8" style="stroke: #000000; stroke-width: 0.8"/>
      </g>
     </g>
     <g id="text_5">
      <!-- 30 -->
      <g transform="translate(336.203049 401.398437) scale(0.1 -0.1)">
       <defs>
        <path id="DejaVuSans-33" d="M 2597 2516 
Q 3050 2419 3304 2112 
Q 3559 1806 3559 1356 
Q 3559 666 3084 287 
Q 2609 -91 1734 -91 
Q 1441 -91 1130 -33 
Q 819 25 488 141 
L 488 750 
Q 750 597 1062 519 
Q 1375 441 1716 441 
Q 2309 441 2620 675 
Q 2931 909 2931 1356 
Q 2931 1769 2642 2001 
Q 2353 2234 1838 2234 
L 1294 2234 
L 1294 2753 
L 1863 2753 
Q 2328 2753 2575 2939 
Q 2822 3125 2822 3475 
Q 2822 3834 2567 4026 
Q 2313 4219 1838 4219 
Q 1578 4219 1281 4162 
Q 984 4106 628 3988 
L 628 4550 
Q 988 4650 1302 4700 
Q 1616 4750 1894 4750 
Q 2613 4750 3031 4423 
Q 3450 4097 3450 3541 
Q 3450 3153 3228 2886 
Q 3006 2619 2597 2516 
z
" transform="scale(0.015625)"/>
       </defs>
       <use xlink:href="#DejaVuSans-33"/>
       <use xlink:href="#DejaVuSans-30" x="63.623047"/>
      </g>
     </g>
    </g>
    <g id="xtick_6">
     <g id="line2d_11">
      <path d="M 410.120473 386.8 
L 410.120473 68.64 
" clip-path="url(#p724a76046e)" style="fill: none; stroke: #b0b0b0; stroke-opacity: 0.3; stroke-width: 0.8; stroke-linecap: square"/>
     </g>
     <g id="line2d_12">
      <g>
       <use xlink:href="#m16c6772329" x="410.120473" y="386.8" style="stroke: #000000; stroke-width: 0.8"/>
      </g>
     </g>
     <g id="text_6">
      <!-- 35 -->
      <g transform="translate(403.757973 401.398437) scale(0.1 -0.1)">
       <use xlink:href="#DejaVuSans-33"/>
       <use xlink:href="#DejaVuSans-35" x="63.623047"/>
      </g>
     </g>
    </g>
    <g id="xtick_7">
     <g id="line2d_13">
      <path d="M 477.675398 386.8 
L 477.675398 68.64 
" clip-path="url(#p724a76046e)" style="fill: none; stroke: #b0b0b0; stroke-opacity: 0.3; stroke-width: 0.8; stroke-linecap: square"/>
     </g>
     <g id="line2d_14">
      <g>
       <use xlink:href="#m16c6772329" x="477.675398" y="386.8" style="stroke: #000000; stroke-width: 0.8"/>
      </g>
     </g>
     <g id="text_7">
      <!-- 40 -->
      <g transform="translate(471.312898 401.398437) scale(0.1 -0.1)">
       <defs>
        <path id="DejaVuSans-34" d="M 2419 4116 
L 825 1625 
L 2419 1625 
L 2419 4116 
z
M 2253 4666 
L 3047 4666 
L 3047 1625 
L 3713 1625 
L 3713 1100 
L 3047 1100 
L 3047 0 
L 2419 0 
L 2419 1100 
L 313 1100 
L 313 1709 
L 2253 4666 
z
" transform="scale(0.015625)"/>
       </defs>
       <use xlink:href="#DejaVuSans-34"/>
       <use xlink:href="#DejaVuSans-30" x="63.623047"/>
      </g>
     </g>
    </g>
    <g id="text_8">
     <!-- Temperature (°C) -->
     <g transform="translate(223.22875 416.59625) scale(0.12 -0.12)">
      <defs>
       <path id="DejaVuSans-54" d="M -19 4666 
L 3928 4666 
L 3928 4134 
L 2272 4134 
L 2272 0 
L 1638 0 
L 1638 4134 
L -19 4134 
L -19 4666 
z
" transform="scale(0.015625)"/>
       <path id="DejaVuSans-65" d="M 3597 1894 
L 3597 1613 
L 953 1613 
Q 991 1019 1311 708 
Q 1631 397 2203 397 
Q 2534 397 2845 478 
Q 3156 559 3463 722 
L 3463 178 
Q 3153 47 2828 -22 
Q 2503 -91 2169 -91 
Q 1331 -91 842 396 
Q 353 884 353 1716 
Q 353 2575 817 3079 
Q 1281 3584 2069 3584 
Q 2775 3584 3186 3129 
Q 3597 2675 3597 1894 
z
M 3022 2063 
Q 3016 2534 2758 2815 
Q 2500 3097 2075 3097 
Q 1594 3097 1305 2825 
Q 1016 2553 972 2059 
L 3022 2063 
z
" transform="scale(0.015625)"/>
       <path id="DejaVuSans-6d" d="M 3328 2828 
Q 3544 3216 3844 3400 
Q 4144 3584 4550 3584 
Q 5097 3584 5394 3201 
Q 5691 2819 5691 2113 
L 5691 0 
L 5113 0 
L 5113 2094 
Q 5113 2597 4934 2840 
Q 4756 3084 4391 3084 
Q 3944 3084 3684 2787 
Q 3425 2491 3425 1978 
L 3425 0 
L 2847 0 
L 2847 2094 
Q 2847 2600 2669 2842 
Q 2491 3084 2119 3084 
Q 1678 3084 1418 2786 
Q 1159 2488 1159 1978 
L 1159 0 
L 581 0 
L 581 3500 
L 1159 3500 
L 1159 2956 
Q 1356 3278 1631 3431 
Q 1906 3584 2284 3584 
Q 2666 3584 2933 3390 
Q 3200 3197 3328 2828 
z
" transform="scale(0.015625)"/>
       <path id="DejaVuSans-70" d="M 1159 525 
L 1159 -1331 
L 581 -1331 
L 581 3500 
L 1159 3500 
L 1159 2969 
Q 1341 3281 1617 3432 
Q 1894 3584 2278 3584 
Q 2916 3584 3314 3078 
Q 3713 2572 3713 1747 
Q 3713 922 3314 415 
Q 2916 -91 2278 -91 
Q 1894 -91 1617 61 
Q 1341 213 1159 525 
z
M 3116 1747 
Q 3116 2381 2855 2742 
Q 2594 3103 2138 3103 
Q 1681 3103 1420 2742 
Q 1159 2381 1159 1747 
Q 1159 1113 1420 752 
Q 1681 391 2138 391 
Q 2594 391 2855 752 
Q 3116 1113 3116 1747 
z
" transform="scale(0.015625)"/>
       <path id="DejaVuSans-72" d="M 2631 2963 
Q 2534 3019 2420 3045 
Q 2306 3072 2169 3072 
Q 1681 3072 1420 2755 
Q 1159 2438 1159 1844 
L 1159 0 
L 581 0 
L 581 3500 
L 1159 3500 
L 1159 2956 
Q 1341 3275 1631 3429 
Q 1922 3584 2338 3584 
Q 2397 3584 2469 3576 
Q 2541 3569 2628 3553 
L 2631 2963 
z
" transform="scale(0.015625)"/>
       <path id="DejaVuSans-61" d="M 2194 1759 
Q 1497 1759 1228 1600 
Q 959 1441 959 1056 
Q 959 750 1161 570 
Q 1363 391 1709 391 
Q 2188 391 2477 730 
Q 2766 1069 2766 1631 
L 2766 1759 
L 2194 1759 
z
M 3341 1997 
L 3341 0 
L 2766 0 
L 2766 531 
Q 2569 213 2275 61 
Q 1981 -91 1556 -91 
Q 1019 -91 701 211 
Q 384 513 384 1019 
Q 384 1609 779 1909 
Q 1175 2209 1959 2209 
L 2766 2209 
L 2766 2266 
Q 2766 2663 2505 2880 
Q 2244 3097 1772 3097 
Q 1472 3097 1187 3025 
Q 903 2953 641 2809 
L 641 3341 
Q 956 3463 1253 3523 
Q 1550 3584 1831 3584 
Q 2591 3584 2966 3190 
Q 3341 2797 3341 1997 
z
" transform="scale(0.015625)"/>
       <path id="DejaVuSans-74" d="M 1172 4494 
L 1172 3500 
L 2356 3500 
L 2356 3053 
L 1172 3053 
L 1172 1153 
Q 1172 725 1289 603 
Q 1406 481 1766 481 
L 2356 481 
L 2356 0 
L 1766 0 
Q 1100 0 847 248 
Q 594 497 594 1153 
L 594 3053 
L 172 3053 
L 172 3500 
L 594 3500 
L 594 4494 
L 1172 4494 
z
" transform="scale(0.015625)"/>
       <path id="DejaVuSans-75" d="M 544 1381 
L 544 3500 
L 1119 3500 
L 1119 1403 
Q 1119 906 1312 657 
Q 1506 409 1894 409 
Q 2359 409 2629 706 
Q 2900 1003 2900 1516 
L 2900 3500 
L 3475 3500 
L 3475 0 
L 2900 0 
L 2900 538 
Q 2691 219 2414 64 
Q 2138 -91 1772 -91 
Q 1169 -91 856 284 
Q 544 659 544 1381 
z
M 1991 3584 
L 1991 3584 
z
" transform="scale(0.015625)"/>
       <path id="DejaVuSans-20" transform="scale(0.015625)"/>
       <path id="DejaVuSans-28" d="M 1984 4856 
Q 1566 4138 1362 3434 
Q 1159 2731 1159 2009 
Q 1159 1288 1364 580 
Q 1569 -128 1984 -844 
L 1484 -844 
Q 1016 -109 783 600 
Q 550 1309 550 2009 
Q 550 2706 781 3412 
Q 1013 4119 1484 4856 
L 1984 4856 
z
" transform="scale(0.015625)"/>
       <path id="DejaVuSans-b0" d="M 1600 4347 
Q 1350 4347 1178 4173 
Q 1006 4000 1006 3750 
Q 1006 3503 1178 3333 
Q 1350 3163 1600 3163 
Q 1850 3163 2022 3333 
Q 2194 3503 2194 3750 
Q 2194 3997 2020 4172 
Q 1847 4347 1600 4347 
z
M 1600 4750 
Q 1800 4750 1984 4673 
Q 2169 4597 2303 4453 
Q 2447 4313 2519 4134 
Q 2591 3956 2591 3750 
Q 2591 3338 2302 3052 
Q 2013 2766 1594 2766 
Q 1172 2766 890 3047 
Q 609 3328 609 3750 
Q 609 4169 896 4459 
Q 1184 4750 1600 4750 
z
" transform="scale(0.015625)"/>
       <path id="DejaVuSans-43" d="M 4122 4306 
L 4122 3641 
Q 3803 3938 3442 4084 
Q 3081 4231 2675 4231 
Q 1875 4231 1450 3742 
Q 1025 3253 1025 2328 
Q 1025 1406 1450 917 
Q 1875 428 2675 428 
Q 3081 428 3442 575 
Q 3803 722 4122 1019 
L 4122 359 
Q 3791 134 3420 21 
Q 3050 -91 2638 -91 
Q 1578 -91 968 557 
Q 359 1206 359 2328 
Q 359 3453 968 4101 
Q 1578 4750 2638 4750 
Q 3056 4750 3426 4639 
Q 3797 4528 4122 4306 
z
" transform="scale(0.015625)"/>
       <path id="DejaVuSans-29" d="M 513 4856 
L 1013 4856 
Q 1481 4119 1714 3412 
Q 1947 2706 1947 2009 
Q 1947 1309 1714 600 
Q 1481 -109 1013 -844 
L 513 -844 
Q 928 -128 1133 580 
Q 1338 1288 1338 2009 
Q 1338 2731 1133 3434 
Q 928 4138 513 4856 
z
" transform="scale(0.015625)"/>
      </defs>
      <use xlink:href="#DejaVuSans-54"/>
      <use xlink:href="#DejaVuSans-65" x="44.083984"/>
      <use xlink:href="#DejaVuSans-6d" x="105.607422"/>
      <use xlink:href="#DejaVuSans-70" x="203.019531"/>
      <use xlink:href="#DejaVuSans-65" x="266.496094"/>
      <use xlink:href="#DejaVuSans-72" x="328.019531"/>
      <use xlink:href="#DejaVuSans-61" x="369.132812"/>
      <use xlink:href="#DejaVuSans-74" x="430.412109"/>
      <use xlink:href="#DejaVuSans-75" x="469.621094"/>
      <use xlink:href="#DejaVuSans-72" x="533"/>
      <use xlink:href="#DejaVuSans-65" x="571.863281"/>
      <use xlink:href="#DejaVuSans-20" x="633.386719"/>
      <use xlink:href="#DejaVuSans-28" x="665.173828"/>
      <use xlink:href="#DejaVuSans-b0" x="704.1875"/>
      <use xlink:href="#DejaVuSans-43" x="754.1875"/>
      <use xlink:href="#DejaVuSans-29" x="824.011719"/>
     </g>
    </g>
   </g>
   <g id="matplotlib.axis_2">
    <g id="ytick_1">
     <g id="line2d_15">
      <path d="M 52.079375 386.8 
L 497.941875 386.8 
" clip-path="url(#p724a76046e)" style="fill: none; stroke: #b0b0b0; stroke-opacity: 0.3; stroke-width: 0.8; stroke-linecap: square"/>
     </g>
     <g id="line2d_16">
      <defs>
       <path id="m9116be3d1d" d="M 0 0 
L -3.5 0 
" style="stroke: #000000; stroke-width: 0.8"/>
      </defs>
      <g>
       <use xlink:href="#m9116be3d1d" x="52.079375" y="386.8" style="stroke: #000000; stroke-width: 0.8"/>
      </g>
     </g>
     <g id="text_9">
      <!-- 0.90 -->
      <g transform="translate(22.81375 390.599219) scale(0.1 -0.1)">
       <defs>
        <path id="DejaVuSans-2e" d="M 684 794 
L 1344 794 
L 1344 0 
L 684 0 
L 684 794 
z
" transform="scale(0.015625)"/>
        <path id="DejaVuSans-39" d="M 703 97 
L 703 672 
Q 941 559 1184 500 
Q 1428 441 1663 441 
Q 2288 441 2617 861 
Q 2947 1281 2994 2138 
Q 2813 1869 2534 1725 
Q 2256 1581 1919 1581 
Q 1219 1581 811 2004 
Q 403 2428 403 3163 
Q 403 3881 828 4315 
Q 1253 4750 1959 4750 
Q 2769 4750 3195 4129 
Q 3622 3509 3622 2328 
Q 3622 1225 3098 567 
Q 2575 -91 1691 -91 
Q 1453 -91 1209 -44 
Q 966 3 703 97 
z
M 1959 2075 
Q 2384 2075 2632 2365 
Q 2881 2656 2881 3163 
Q 2881 3666 2632 3958 
Q 2384 4250 1959 4250 
Q 1534 4250 1286 3958 
Q 1038 3666 1038 3163 
Q 1038 2656 1286 2365 
Q 1534 2075 1959 2075 
z
" transform="scale(0.015625)"/>
       </defs>
       <use xlink:href="#DejaVuSans-30"/>
       <use xlink:href="#DejaVuSans-2e" x="63.623047"/>
       <use xlink:href="#DejaVuSans-39" x="95.410156"/>
       <use xlink:href="#DejaVuSans-30" x="159.033203"/>
      </g>
     </g>
    </g>
    <g id="ytick_2">
     <g id="line2d_17">
      <path d="M 52.079375 347.03 
L 497.941875 347.03 
" clip-path="url(#p724a76046e)" style="fill: none; stroke: #b0b0b0; stroke-opacity: 0.3; stroke-width: 0.8; stroke-linecap: square"/>
     </g>
     <g id="line2d_18">
      <g>
       <use xlink:href="#m9116be3d1d" x="52.079375" y="347.03" style="stroke: #000000; stroke-width: 0.8"/>
      </g>
     </g>
     <g id="text_10">
      <!-- 0.95 -->
      <g transform="translate(22.81375 350.829219) scale(0.1 -0.1)">
       <use xlink:href="#DejaVuSans-30"/>
       <use xlink:href="#DejaVuSans-2e" x="63.623047"/>
       <use xlink:href="#DejaVuSans-39" x="95.410156"/>
       <use xlink:href="#DejaVuSans-35" x="159.033203"/>
      </g>
     </g>
    </g>
    <g id="ytick_3">
     <g id="line2d_19">
      <path d="M 52.079375 307.26 
L 497.941875 307.26 
" clip-path="url(#p724a76046e)" style="fill: none; stroke: #b0b0b0; stroke-opacity: 0.3; stroke-width: 0.8; stroke-linecap: square"/>
     </g>
     <g id="line2d_20">
      <g>
       <use xlink:href="#m9116be3d1d" x="52.079375" y="307.26" style="stroke: #000000; stroke-width: 0.8"/>
      </g>
     </g>
     <g id="text_11">
      <!-- 1.00 -->
      <g transform="translate(22.81375 311.059219) scale(0.1 -0.1)">
       <use xlink:href="#DejaVuSans-31"/>
       <use xlink:href="#DejaVuSans-2e" x="63.623047"/>
       <use xlink:href="#DejaVuSans-30" x="95.410156"/>
       <use xlink:href="#DejaVuSans-30" x="159.033203"/>
      </g>
     </g>
    </g>
    <g id="ytick_4">
     <g id="line2d_21">
      <path d="M 52.079375 267.49 
L 497.941875 267.49 
" clip-path="url(#p724a76046e)" style="fill: none; stroke: #b0b0b0; stroke-opacity: 0.3; stroke-width: 0.8; stroke-linecap: square"/>
     </g>
     <g id="line2d_22">
      <g>
       <use xlink:href="#m9116be3d1d" x="52.079375" y="267.49" style="stroke: #000000; stroke-width: 0.8"/>
      </g>
     </g>
     <g id="text_12">
      <!-- 1.05 -->
      <g transform="translate(22.81375 271.289219) scale(0.1 -0.1)">
       <use xlink:href="#DejaVuSans-31"/>
       <use xlink:href="#DejaVuSans-2e" x="63.623047"/>
       <use xlink:href="#DejaVuSans-30" x="95.410156"/>
       <use xlink:href="#DejaVuSans-35" x="159.033203"/>
      </g>
     </g>
    </g>
    <g id="ytick_5">
     <g id="line2d_23">
      <path d="M 52.079375 227.72 
L 497.941875 227.72 
" clip-path="url(#p724a76046e)" style="fill: none; stroke: #b0b0b0; stroke-opacity: 0.3; stroke-width: 0.8; stroke-linecap: square"/>
     </g>
     <g id="line2d_24">
      <g>
       <use xlink:href="#m9116be3d1d" x="52.079375" y="227.72" style="stroke: #000000; stroke-width: 0.8"/>
      </g>
     </g>
     <g id="text_13">
      <!-- 1.10 -->
      <g transform="translate(22.81375 231.519219) scale(0.1 -0.1)">
       <use xlink:href="#DejaVuSans-31"/>
       <use xlink:href="#DejaVuSans-2e" x="63.623047"/>
       <use xlink:href="#DejaVuSans-31" x="95.410156"/>
       <use xlink:href="#DejaVuSans-30" x="159.033203"/>
      </g>
     </g>
    </g>
    <g id="ytick_6">
     <g id="line2d_25">
      <path d="M 52.079375 187.95 
L 497.941875 187.95 
" clip-path="url(#p724a76046e)" style="fill: none; stroke: #b0b0b0; stroke-opacity: 0.3; stroke-width: 0.8; stroke-linecap: square"/>
     </g>
     <g id="line2d_26">
      <g>
       <use xlink:href="#m9116be3d1d" x="52.079375" y="187.95" style="stroke: #000000; stroke-width: 0.8"/>
      </g>
     </g>
     <g id="text_14">
      <!-- 1.15 -->
      <g transform="translate(22.81375 191.749219) scale(0.1 -0.1)">
       <use xlink:href="#DejaVuSans-31"/>
       <use xlink:href="#DejaVuSans-2e" x="63.623047"/>
       <use xlink:href="#DejaVuSans-31" x="95.410156"/>
       <use xlink:href="#DejaVuSans-35" x="159.033203"/>
      </g>
     </g>
    </g>
    <g id="ytick_7">
     <g id="line2d_27">
      <path d="M 52.079375 148.18 
L 497.941875 148.18 
" clip-path="url(#p724a76046e)" style="fill: none; stroke: #b0b0b0; stroke-opacity: 0.3; stroke-width: 0.8; stroke-linecap: square"/>
     </g>
     <g id="line2d_28">
      <g>
       <use xlink:href="#m9116be3d1d" x="52.079375" y="148.18" style="stroke: #000000; stroke-width: 0.8"/>
      </g>
     </g>
     <g id="text_15">
      <!-- 1.20 -->
      <g transform="translate(22.81375 151.979219) scale(0.1 -0.1)">
       <use xlink:href="#DejaVuSans-31"/>
       <use xlink:href="#DejaVuSans-2e" x="63.623047"/>
       <use xlink:href="#DejaVuSans-32" x="95.410156"/>
       <use xlink:href="#DejaVuSans-30" x="159.033203"/>
      </g>
     </g>
    </g>
    <g id="ytick_8">
     <g id="line2d_29">
      <path d="M 52.079375 108.41 
L 497.941875 108.41 
" clip-path="url(#p724a76046e)" style="fill: none; stroke: #b0b0b0; stroke-opacity: 0.3; stroke-width: 0.8; stroke-linecap: square"/>
     </g>
     <g id="line2d_30">
      <g>
       <use xlink:href="#m9116be3d1d" x="52.079375" y="108.41" style="stroke: #000000; stroke-width: 0.8"/>
      </g>
     </g>
     <g id="text_16">
      <!-- 1.25 -->
      <g transform="translate(22.81375 112.209219) scale(0.1 -0.1)">
       <use xlink:href="#DejaVuSans-31"/>
       <use xlink:href="#DejaVuSans-2e" x="63.623047"/>
       <use xlink:href="#DejaVuSans-32" x="95.410156"/>
       <use xlink:href="#DejaVuSans-35" x="159.033203"/>
      </g>
     </g>
    </g>
    <g id="ytick_9">
     <g id="line2d_31">
      <path d="M 52.079375 68.64 
L 497.941875 68.64 
" clip-path="url(#p724a76046e)" style="fill: none; stroke: #b0b0b0; stroke-opacity: 0.3; stroke-width: 0.8; stroke-linecap: square"/>
     </g>
     <g id="line2d_32">
      <g>
       <use xlink:href="#m9116be3d1d" x="52.079375" y="68.64" style="stroke: #000000; stroke-width: 0.8"/>
      </g>
     </g>
     <g id="text_17">
      <!-- 1.30 -->
      <g transform="translate(22.81375 72.439219) scale(0.1 -0.1)">
       <use xlink:href="#DejaVuSans-31"/>
       <use xlink:href="#DejaVuSans-2e" x="63.623047"/>
       <use xlink:href="#DejaVuSans-33" x="95.410156"/>
       <use xlink:href="#DejaVuSans-30" x="159.033203"/>
      </g>
     </g>
    </g>
    <g id="text_18">
     <!-- Cumulative Relative Risk -->
     <g transform="translate(16.318125 302.411562) rotate(-90) scale(0.12 -0.12)">
      <defs>
       <path id="DejaVuSans-6c" d="M 603 4863 
L 1178 4863 
L 1178 0 
L 603 0 
L 603 4863 
z
" transform="scale(0.015625)"/>
       <path id="DejaVuSans-69" d="M 603 3500 
L 1178 3500 
L 1178 0 
L 603 0 
L 603 3500 
z
M 603 4863 
L 1178 4863 
L 1178 4134 
L 603 4134 
L 603 4863 
z
" transform="scale(0.015625)"/>
       <path id="DejaVuSans-76" d="M 191 3500 
L 800 3500 
L 1894 563 
L 2988 3500 
L 3597 3500 
L 2284 0 
L 1503 0 
L 191 3500 
z
" transform="scale(0.015625)"/>
       <path id="DejaVuSans-52" d="M 2841 2188 
Q 3044 2119 3236 1894 
Q 3428 1669 3622 1275 
L 4263 0 
L 3584 0 
L 2988 1197 
Q 2756 1666 2539 1819 
Q 2322 1972 1947 1972 
L 1259 1972 
L 1259 0 
L 628 0 
L 628 4666 
L 2053 4666 
Q 2853 4666 3247 4331 
Q 3641 3997 3641 3322 
Q 3641 2881 3436 2590 
Q 3231 2300 2841 2188 
z
M 1259 4147 
L 1259 2491 
L 2053 2491 
Q 2509 2491 2742 2702 
Q 2975 2913 2975 3322 
Q 2975 3731 2742 3939 
Q 2509 4147 2053 4147 
L 1259 4147 
z
" transform="scale(0.015625)"/>
       <path id="DejaVuSans-73" d="M 2834 3397 
L 2834 2853 
Q 2591 2978 2328 3040 
Q 2066 3103 1784 3103 
Q 1356 3103 1142 2972 
Q 928 2841 928 2578 
Q 928 2378 1081 2264 
Q 1234 2150 1697 2047 
L 1894 2003 
Q 2506 1872 2764 1633 
Q 3022 1394 3022 966 
Q 3022 478 2636 193 
Q 2250 -91 1575 -91 
Q 1294 -91 989 -36 
Q 684 19 347 128 
L 347 722 
Q 666 556 975 473 
Q 1284 391 1588 391 
Q 1994 391 2212 530 
Q 2431 669 2431 922 
Q 2431 1156 2273 1281 
Q 2116 1406 1581 1522 
L 1381 1569 
Q 847 1681 609 1914 
Q 372 2147 372 2553 
Q 372 3047 722 3315 
Q 1072 3584 1716 3584 
Q 2034 3584 2315 3537 
Q 2597 3491 2834 3397 
z
" transform="scale(0.015625)"/>
       <path id="DejaVuSans-6b" d="M 581 4863 
L 1159 4863 
L 1159 1991 
L 2875 3500 
L 3609 3500 
L 1753 1863 
L 3688 0 
L 2938 0 
L 1159 1709 
L 1159 0 
L 581 0 
L 581 4863 
z
" transform="scale(0.015625)"/>
      </defs>
      <use xlink:href="#DejaVuSans-43"/>
      <use xlink:href="#DejaVuSans-75" x="69.824219"/>
      <use xlink:href="#DejaVuSans-6d" x="133.203125"/>
      <use xlink:href="#DejaVuSans-75" x="230.615234"/>
      <use xlink:href="#DejaVuSans-6c" x="293.994141"/>
      <use xlink:href="#DejaVuSans-61" x="321.777344"/>
      <use xlink:href="#DejaVuSans-74" x="383.056641"/>
      <use xlink:href="#DejaVuSans-69" x="422.265625"/>
      <use xlink:href="#DejaVuSans-76" x="450.048828"/>
      <use xlink:href="#DejaVuSans-65" x="509.228516"/>
      <use xlink:href="#DejaVuSans-20" x="570.751953"/>
      <use xlink:href="#DejaVuSans-52" x="602.539062"/>
      <use xlink:href="#DejaVuSans-65" x="667.521484"/>
      <use xlink:href="#DejaVuSans-6c" x="729.044922"/>
      <use xlink:href="#DejaVuSans-61" x="756.828125"/>
      <use xlink:href="#DejaVuSans-74" x="818.107422"/>
      <use xlink:href="#DejaVuSans-69" x="857.316406"/>
      <use xlink:href="#DejaVuSans-76" x="885.099609"/>
      <use xlink:href="#DejaVuSans-65" x="944.279297"/>
      <use xlink:href="#DejaVuSans-20" x="1005.802734"/>
      <use xlink:href="#DejaVuSans-52" x="1037.589844"/>
      <use xlink:href="#DejaVuSans-69" x="1107.072266"/>
      <use xlink:href="#DejaVuSans-73" x="1134.855469"/>
      <use xlink:href="#DejaVuSans-6b" x="1186.955078"/>
     </g>
    </g>
   </g>
   <g id="line2d_33">
    <path d="M 72.345852 307.26 
L 76.44009 307.26 
L 80.534328 307.26 
L 84.628566 307.26 
L 88.722804 307.26 
L 92.817041 307.26 
L 96.911279 307.26 
L 101.005517 307.26 
L 105.099755 307.26 
L 109.193993 307.26 
L 113.288231 307.26 
L 117.382468 307.259999 
L 121.476706 307.259999 
L 125.570944 307.259998 
L 129.665182 307.259997 
L 133.75942 307.259995 
L 137.853658 307.259991 
L 141.947895 307.259985 
L 146.042133 307.259975 
L 150.136371 307.259958 
L 154.230609 307.259932 
L 158.324847 307.259891 
L 162.419085 307.259825 
L 166.513322 307.259723 
L 170.60756 307.259565 
L 174.701798 307.259324 
L 178.796036 307.258958 
L 182.890274 307.258408 
L 186.984512 307.257592 
L 191.078749 307.256389 
L 195.172987 307.254636 
L 199.267225 307.252104 
L 203.361463 307.248484 
L 207.455701 307.243358 
L 211.549939 307.236169 
L 215.644176 307.226187 
L 219.738414 307.212463 
L 223.832652 307.193778 
L 227.92689 307.168592 
L 232.021128 307.134982 
L 236.115366 307.090575 
L 240.209603 307.032494 
L 244.303841 306.957295 
L 248.398079 306.860921 
L 252.492317 306.738674 
L 256.586555 306.585204 
L 260.680793 306.394539 
L 264.77503 306.160147 
L 268.869268 305.875051 
L 272.963506 305.531995 
L 277.057744 305.123671 
L 281.151982 304.643003 
L 285.24622 304.08349 
L 289.340457 303.439597 
L 293.434695 302.707182 
L 297.528933 301.88395 
L 301.623171 300.96989 
L 305.717409 299.967688 
L 309.811647 298.883083 
L 313.905884 297.725121 
L 318.000122 296.506294 
L 322.09436 295.242529 
L 326.188598 293.953004 
L 330.282836 292.659795 
L 334.377074 291.387335 
L 338.471311 290.161707 
L 342.565549 289.0098 
L 346.659787 287.958347 
L 350.754025 287.032912 
L 354.848263 286.256861 
L 358.942501 285.650384 
L 363.036738 285.229626 
L 367.130976 285.005969 
L 371.225214 284.985524 
L 375.319452 285.168852 
L 379.41369 285.550938 
L 383.507928 286.121419 
L 387.602165 286.865053 
L 391.696403 287.762393 
L 395.790641 288.790631 
L 399.884879 289.924564 
L 403.979117 291.137608 
L 408.073355 292.402827 
L 412.167592 293.693905 
L 416.26183 294.986017 
L 420.356068 296.256567 
L 424.450306 297.485764 
L 428.544544 298.657009 
L 432.638782 299.757118 
L 436.733019 300.776363 
L 440.827257 301.70836 
L 444.921495 302.549837 
L 449.015733 303.300298 
L 453.109971 303.961617 
L 457.204209 304.537602 
L 461.298446 305.033544 
L 465.392684 305.455783 
L 469.486922 305.811311 
L 473.58116 306.107413 
L 477.675398 306.351376 
" clip-path="url(#p724a76046e)" style="fill: none; stroke: #dc2626; stroke-width: 3; stroke-linecap: square"/>
   </g>
   <g id="line2d_34">
    <path d="M 52.079375 307.26 
L 497.941875 307.26 
" clip-path="url(#p724a76046e)" style="fill: none; stroke-dasharray: 5.55,2.4; stroke-dashoffset: 0; stroke: #808080; stroke-opacity: 0.5; stroke-width: 1.5"/>
   </g>
   <g id="line2d_35">
    <path d="M 275.010625 386.8 
L 275.010625 68.64 
" clip-path="url(#p724a76046e)" style="fill: none; stroke-dasharray: 1.5,2.475; stroke-dashoffset: 0; stroke: #808080; stroke-opacity: 0.5; stroke-width: 1.5"/>
   </g>
   <g id="patch_3">
    <path d="M 52.079375 386.8 
L 52.079375 68.64 
" style="fill: none; stroke: #000000; stroke-width: 0.8; stroke-linejoin: miter; stroke-linecap: square"/>
   </g>
   <g id="patch_4">
    <path d="M 497.941875 386.8 
L 497.941875 68.64 
" style="fill: none; stroke: #000000; stroke-width: 0.8; stroke-linejoin: miter; stroke-linecap: square"/>
   </g>
   <g id="patch_5">
    <path d="M 52.079375 386.8 
L 497.941875 386.8 
" style="fill: none; stroke: #000000; stroke-width: 0.8; stroke-linejoin: miter; stroke-linecap: square"/>
   </g>
   <g id="patch_6">
    <path d="M 52.079375 68.64 
L 497.941875 68.64 
" style="fill: none; stroke: #000000; stroke-width: 0.8; stroke-linejoin: miter; stroke-linecap: square"/>
   </g>
   <g id="text_19">
    <!-- Blood Pressure: Cumulative Effect (0-30 days) -->
    <g transform="translate(105.967969 62.64) scale(0.13 -0.13)">
     <defs>
      <path id="DejaVuSans-Bold-42" d="M 2456 2859 
Q 2741 2859 2887 2984 
Q 3034 3109 3034 3353 
Q 3034 3594 2887 3720 
Q 2741 3847 2456 3847 
L 1791 3847 
L 1791 2859 
L 2456 2859 
z
M 2497 819 
Q 2859 819 3042 972 
Q 3225 1125 3225 1434 
Q 3225 1738 3044 1889 
Q 2863 2041 2497 2041 
L 1791 2041 
L 1791 819 
L 2497 819 
z
M 3616 2497 
Q 4003 2384 4215 2081 
Q 4428 1778 4428 1338 
Q 4428 663 3972 331 
Q 3516 0 2584 0 
L 588 0 
L 588 4666 
L 2394 4666 
Q 3366 4666 3802 4372 
Q 4238 4078 4238 3431 
Q 4238 3091 4078 2852 
Q 3919 2613 3616 2497 
z
" transform="scale(0.015625)"/>
      <path id="DejaVuSans-Bold-6c" d="M 538 4863 
L 1656 4863 
L 1656 0 
L 538 0 
L 538 4863 
z
" transform="scale(0.015625)"/>
      <path id="DejaVuSans-Bold-6f" d="M 2203 2784 
Q 1831 2784 1636 2517 
Q 1441 2250 1441 1747 
Q 1441 1244 1636 976 
Q 1831 709 2203 709 
Q 2569 709 2762 976 
Q 2956 1244 2956 1747 
Q 2956 2250 2762 2517 
Q 2569 2784 2203 2784 
z
M 2203 3584 
Q 3106 3584 3614 3096 
Q 4122 2609 4122 1747 
Q 4122 884 3614 396 
Q 3106 -91 2203 -91 
Q 1297 -91 786 396 
Q 275 884 275 1747 
Q 275 2609 786 3096 
Q 1297 3584 2203 3584 
z
" transform="scale(0.015625)"/>
      <path id="DejaVuSans-Bold-64" d="M 2919 2988 
L 2919 4863 
L 4044 4863 
L 4044 0 
L 2919 0 
L 2919 506 
Q 2688 197 2409 53 
Q 2131 -91 1766 -91 
Q 1119 -91 703 423 
Q 288 938 288 1747 
Q 288 2556 703 3070 
Q 1119 3584 1766 3584 
Q 2128 3584 2408 3439 
Q 2688 3294 2919 2988 
z
M 2181 722 
Q 2541 722 2730 984 
Q 2919 1247 2919 1747 
Q 2919 2247 2730 2509 
Q 2541 2772 2181 2772 
Q 1825 2772 1636 2509 
Q 1447 2247 1447 1747 
Q 1447 1247 1636 984 
Q 1825 722 2181 722 
z
" transform="scale(0.015625)"/>
      <path id="DejaVuSans-Bold-20" transform="scale(0.015625)"/>
      <path id="DejaVuSans-Bold-50" d="M 588 4666 
L 2584 4666 
Q 3475 4666 3951 4270 
Q 4428 3875 4428 3144 
Q 4428 2409 3951 2014 
Q 3475 1619 2584 1619 
L 1791 1619 
L 1791 0 
L 588 0 
L 588 4666 
z
M 1791 3794 
L 1791 2491 
L 2456 2491 
Q 2806 2491 2997 2661 
Q 3188 2831 3188 3144 
Q 3188 3456 2997 3625 
Q 2806 3794 2456 3794 
L 1791 3794 
z
" transform="scale(0.015625)"/>
      <path id="DejaVuSans-Bold-72" d="M 3138 2547 
Q 2991 2616 2845 2648 
Q 2700 2681 2553 2681 
Q 2122 2681 1889 2404 
Q 1656 2128 1656 1613 
L 1656 0 
L 538 0 
L 538 3500 
L 1656 3500 
L 1656 2925 
Q 1872 3269 2151 3426 
Q 2431 3584 2822 3584 
Q 2878 3584 2943 3579 
Q 3009 3575 3134 3559 
L 3138 2547 
z
" transform="scale(0.015625)"/>
      <path id="DejaVuSans-Bold-65" d="M 4031 1759 
L 4031 1441 
L 1416 1441 
Q 1456 1047 1700 850 
Q 1944 653 2381 653 
Q 2734 653 3104 758 
Q 3475 863 3866 1075 
L 3866 213 
Q 3469 63 3072 -14 
Q 2675 -91 2278 -91 
Q 1328 -91 801 392 
Q 275 875 275 1747 
Q 275 2603 792 3093 
Q 1309 3584 2216 3584 
Q 3041 3584 3536 3087 
Q 4031 2591 4031 1759 
z
M 2881 2131 
Q 2881 2450 2695 2645 
Q 2509 2841 2209 2841 
Q 1884 2841 1681 2658 
Q 1478 2475 1428 2131 
L 2881 2131 
z
" transform="scale(0.015625)"/>
      <path id="DejaVuSans-Bold-73" d="M 3272 3391 
L 3272 2541 
Q 2913 2691 2578 2766 
Q 2244 2841 1947 2841 
Q 1628 2841 1473 2761 
Q 1319 2681 1319 2516 
Q 1319 2381 1436 2309 
Q 1553 2238 1856 2203 
L 2053 2175 
Q 2913 2066 3209 1816 
Q 3506 1566 3506 1031 
Q 3506 472 3093 190 
Q 2681 -91 1863 -91 
Q 1516 -91 1145 -36 
Q 775 19 384 128 
L 384 978 
Q 719 816 1070 734 
Q 1422 653 1784 653 
Q 2113 653 2278 743 
Q 2444 834 2444 1013 
Q 2444 1163 2330 1236 
Q 2216 1309 1875 1350 
L 1678 1375 
Q 931 1469 631 1722 
Q 331 1975 331 2491 
Q 331 3047 712 3315 
Q 1094 3584 1881 3584 
Q 2191 3584 2531 3537 
Q 2872 3491 3272 3391 
z
" transform="scale(0.015625)"/>
      <path id="DejaVuSans-Bold-75" d="M 500 1363 
L 500 3500 
L 1625 3500 
L 1625 3150 
Q 1625 2866 1622 2436 
Q 1619 2006 1619 1863 
Q 1619 1441 1641 1255 
Q 1663 1069 1716 984 
Q 1784 875 1895 815 
Q 2006 756 2150 756 
Q 2500 756 2700 1025 
Q 2900 1294 2900 1772 
L 2900 3500 
L 4019 3500 
L 4019 0 
L 2900 0 
L 2900 506 
Q 2647 200 2364 54 
Q 2081 -91 1741 -91 
Q 1134 -91 817 281 
Q 500 653 500 1363 
z
" transform="scale(0.015625)"/>
      <path id="DejaVuSans-Bold-3a" d="M 716 3500 
L 1844 3500 
L 1844 2291 
L 716 2291 
L 716 3500 
z
M 716 1209 
L 1844 1209 
L 1844 0 
L 716 0 
L 716 1209 
z
" transform="scale(0.015625)"/>
      <path id="DejaVuSans-Bold-43" d="M 4288 256 
Q 3956 84 3597 -3 
Q 3238 -91 2847 -91 
Q 1681 -91 1000 561 
Q 319 1213 319 2328 
Q 319 3447 1000 4098 
Q 1681 4750 2847 4750 
Q 3238 4750 3597 4662 
Q 3956 4575 4288 4403 
L 4288 3438 
Q 3953 3666 3628 3772 
Q 3303 3878 2944 3878 
Q 2300 3878 1931 3465 
Q 1563 3053 1563 2328 
Q 1563 1606 1931 1193 
Q 2300 781 2944 781 
Q 3303 781 3628 887 
Q 3953 994 4288 1222 
L 4288 256 
z
" transform="scale(0.015625)"/>
      <path id="DejaVuSans-Bold-6d" d="M 3781 2919 
Q 3994 3244 4286 3414 
Q 4578 3584 4928 3584 
Q 5531 3584 5847 3212 
Q 6163 2841 6163 2131 
L 6163 0 
L 5038 0 
L 5038 1825 
Q 5041 1866 5042 1909 
Q 5044 1953 5044 2034 
Q 5044 2406 4934 2573 
Q 4825 2741 4581 2741 
Q 4263 2741 4089 2478 
Q 3916 2216 3909 1719 
L 3909 0 
L 2784 0 
L 2784 1825 
Q 2784 2406 2684 2573 
Q 2584 2741 2328 2741 
Q 2006 2741 1831 2477 
Q 1656 2213 1656 1722 
L 1656 0 
L 531 0 
L 531 3500 
L 1656 3500 
L 1656 2988 
Q 1863 3284 2130 3434 
Q 2397 3584 2719 3584 
Q 3081 3584 3359 3409 
Q 3638 3234 3781 2919 
z
" transform="scale(0.015625)"/>
      <path id="DejaVuSans-Bold-61" d="M 2106 1575 
Q 1756 1575 1579 1456 
Q 1403 1338 1403 1106 
Q 1403 894 1545 773 
Q 1688 653 1941 653 
Q 2256 653 2472 879 
Q 2688 1106 2688 1447 
L 2688 1575 
L 2106 1575 
z
M 3816 1997 
L 3816 0 
L 2688 0 
L 2688 519 
Q 2463 200 2181 54 
Q 1900 -91 1497 -91 
Q 953 -91 614 226 
Q 275 544 275 1050 
Q 275 1666 698 1953 
Q 1122 2241 2028 2241 
L 2688 2241 
L 2688 2328 
Q 2688 2594 2478 2717 
Q 2269 2841 1825 2841 
Q 1466 2841 1156 2769 
Q 847 2697 581 2553 
L 581 3406 
Q 941 3494 1303 3539 
Q 1666 3584 2028 3584 
Q 2975 3584 3395 3211 
Q 3816 2838 3816 1997 
z
" transform="scale(0.015625)"/>
      <path id="DejaVuSans-Bold-74" d="M 1759 4494 
L 1759 3500 
L 2913 3500 
L 2913 2700 
L 1759 2700 
L 1759 1216 
Q 1759 972 1856 886 
Q 1953 800 2241 800 
L 2816 800 
L 2816 0 
L 1856 0 
Q 1194 0 917 276 
Q 641 553 641 1216 
L 641 2700 
L 84 2700 
L 84 3500 
L 641 3500 
L 641 4494 
L 1759 4494 
z
" transform="scale(0.015625)"/>
      <path id="DejaVuSans-Bold-69" d="M 538 3500 
L 1656 3500 
L 1656 0 
L 538 0 
L 538 3500 
z
M 538 4863 
L 1656 4863 
L 1656 3950 
L 538 3950 
L 538 4863 
z
" transform="scale(0.015625)"/>
      <path id="DejaVuSans-Bold-76" d="M 97 3500 
L 1216 3500 
L 2088 1081 
L 2956 3500 
L 4078 3500 
L 2700 0 
L 1472 0 
L 97 3500 
z
" transform="scale(0.015625)"/>
      <path id="DejaVuSans-Bold-45" d="M 588 4666 
L 3834 4666 
L 3834 3756 
L 1791 3756 
L 1791 2888 
L 3713 2888 
L 3713 1978 
L 1791 1978 
L 1791 909 
L 3903 909 
L 3903 0 
L 588 0 
L 588 4666 
z
" transform="scale(0.015625)"/>
      <path id="DejaVuSans-Bold-66" d="M 2841 4863 
L 2841 4128 
L 2222 4128 
Q 1984 4128 1890 4042 
Q 1797 3956 1797 3744 
L 1797 3500 
L 2753 3500 
L 2753 2700 
L 1797 2700 
L 1797 0 
L 678 0 
L 678 2700 
L 122 2700 
L 122 3500 
L 678 3500 
L 678 3744 
Q 678 4316 997 4589 
Q 1316 4863 1984 4863 
L 2841 4863 
z
" transform="scale(0.015625)"/>
      <path id="DejaVuSans-Bold-63" d="M 3366 3391 
L 3366 2478 
Q 3138 2634 2908 2709 
Q 2678 2784 2431 2784 
Q 1963 2784 1702 2511 
Q 1441 2238 1441 1747 
Q 1441 1256 1702 982 
Q 1963 709 2431 709 
Q 2694 709 2930 787 
Q 3166 866 3366 1019 
L 3366 103 
Q 3103 6 2833 -42 
Q 2563 -91 2291 -91 
Q 1344 -91 809 395 
Q 275 881 275 1747 
Q 275 2613 809 3098 
Q 1344 3584 2291 3584 
Q 2566 3584 2833 3536 
Q 3100 3488 3366 3391 
z
" transform="scale(0.015625)"/>
      <path id="DejaVuSans-Bold-28" d="M 2413 -844 
L 1484 -844 
Q 1006 -72 778 623 
Q 550 1319 550 2003 
Q 550 2688 779 3389 
Q 1009 4091 1484 4856 
L 2413 4856 
Q 2013 4116 1813 3408 
Q 1613 2700 1613 2009 
Q 1613 1319 1811 609 
Q 2009 -100 2413 -844 
z
" transform="scale(0.015625)"/>
      <path id="DejaVuSans-Bold-30" d="M 2944 2338 
Q 2944 3213 2780 3570 
Q 2616 3928 2228 3928 
Q 1841 3928 1675 3570 
Q 1509 3213 1509 2338 
Q 1509 1453 1675 1090 
Q 1841 728 2228 728 
Q 2613 728 2778 1090 
Q 2944 1453 2944 2338 
z
M 4147 2328 
Q 4147 1169 3647 539 
Q 3147 -91 2228 -91 
Q 1306 -91 806 539 
Q 306 1169 306 2328 
Q 306 3491 806 4120 
Q 1306 4750 2228 4750 
Q 3147 4750 3647 4120 
Q 4147 3491 4147 2328 
z
" transform="scale(0.015625)"/>
      <path id="DejaVuSans-Bold-2d" d="M 347 2297 
L 2309 2297 
L 2309 1388 
L 347 1388 
L 347 2297 
z
" transform="scale(0.015625)"/>
      <path id="DejaVuSans-Bold-33" d="M 2981 2516 
Q 3453 2394 3698 2092 
Q 3944 1791 3944 1325 
Q 3944 631 3412 270 
Q 2881 -91 1863 -91 
Q 1503 -91 1142 -33 
Q 781 25 428 141 
L 428 1069 
Q 766 900 1098 814 
Q 1431 728 1753 728 
Q 2231 728 2486 893 
Q 2741 1059 2741 1369 
Q 2741 1688 2480 1852 
Q 2219 2016 1709 2016 
L 1228 2016 
L 1228 2791 
L 1734 2791 
Q 2188 2791 2409 2933 
Q 2631 3075 2631 3366 
Q 2631 3634 2415 3781 
Q 2200 3928 1806 3928 
Q 1516 3928 1219 3862 
Q 922 3797 628 3669 
L 628 4550 
Q 984 4650 1334 4700 
Q 1684 4750 2022 4750 
Q 2931 4750 3382 4451 
Q 3834 4153 3834 3553 
Q 3834 3144 3618 2883 
Q 3403 2622 2981 2516 
z
" transform="scale(0.015625)"/>
      <path id="DejaVuSans-Bold-79" d="M 78 3500 
L 1197 3500 
L 2138 1125 
L 2938 3500 
L 4056 3500 
L 2584 -331 
Q 2363 -916 2067 -1148 
Q 1772 -1381 1288 -1381 
L 641 -1381 
L 641 -647 
L 991 -647 
Q 1275 -647 1404 -556 
Q 1534 -466 1606 -231 
L 1638 -134 
L 78 3500 
z
" transform="scale(0.015625)"/>
      <path id="DejaVuSans-Bold-29" d="M 513 -844 
Q 913 -100 1113 609 
Q 1313 1319 1313 2009 
Q 1313 2700 1113 3408 
Q 913 4116 513 4856 
L 1441 4856 
Q 1916 4091 2145 3389 
Q 2375 2688 2375 2003 
Q 2375 1319 2147 623 
Q 1919 -72 1441 -844 
L 513 -844 
z
" transform="scale(0.015625)"/>
     </defs>
     <use xlink:href="#DejaVuSans-Bold-42"/>
     <use xlink:href="#DejaVuSans-Bold-6c" x="76.220703"/>
     <use xlink:href="#DejaVuSans-Bold-6f" x="110.498047"/>
     <use xlink:href="#DejaVuSans-Bold-6f" x="179.199219"/>
     <use xlink:href="#DejaVuSans-Bold-64" x="247.900391"/>
     <use xlink:href="#DejaVuSans-Bold-20" x="319.482422"/>
     <use xlink:href="#DejaVuSans-Bold-50" x="354.296875"/>
     <use xlink:href="#DejaVuSans-Bold-72" x="427.587891"/>
     <use xlink:href="#DejaVuSans-Bold-65" x="476.904297"/>
     <use xlink:href="#DejaVuSans-Bold-73" x="544.726562"/>
     <use xlink:href="#DejaVuSans-Bold-73" x="604.248047"/>
     <use xlink:href="#DejaVuSans-Bold-75" x="663.769531"/>
     <use xlink:href="#DejaVuSans-Bold-72" x="734.960938"/>
     <use xlink:href="#DejaVuSans-Bold-65" x="784.277344"/>
     <use xlink:href="#DejaVuSans-Bold-3a" x="852.099609"/>
     <use xlink:href="#DejaVuSans-Bold-20" x="892.089844"/>
     <use xlink:href="#DejaVuSans-Bold-43" x="926.904297"/>
     <use xlink:href="#DejaVuSans-Bold-75" x="1000.292969"/>
     <use xlink:href="#DejaVuSans-Bold-6d" x="1071.484375"/>
     <use xlink:href="#DejaVuSans-Bold-75" x="1175.683594"/>
     <use xlink:href="#DejaVuSans-Bold-6c" x="1246.875"/>
     <use xlink:href="#DejaVuSans-Bold-61" x="1281.152344"/>
     <use xlink:href="#DejaVuSans-Bold-74" x="1348.632812"/>
     <use xlink:href="#DejaVuSans-Bold-69" x="1396.435547"/>
     <use xlink:href="#DejaVuSans-Bold-76" x="1430.712891"/>
     <use xlink:href="#DejaVuSans-Bold-65" x="1495.898438"/>
     <use xlink:href="#DejaVuSans-Bold-20" x="1563.720703"/>
     <use xlink:href="#DejaVuSans-Bold-45" x="1598.535156"/>
     <use xlink:href="#DejaVuSans-Bold-66" x="1666.845703"/>
     <use xlink:href="#DejaVuSans-Bold-66" x="1710.351562"/>
     <use xlink:href="#DejaVuSans-Bold-65" x="1753.857422"/>
     <use xlink:href="#DejaVuSans-Bold-63" x="1821.679688"/>
     <use xlink:href="#DejaVuSans-Bold-74" x="1880.957031"/>
     <use xlink:href="#DejaVuSans-Bold-20" x="1928.759766"/>
     <use xlink:href="#DejaVuSans-Bold-28" x="1963.574219"/>
     <use xlink:href="#DejaVuSans-Bold-30" x="2009.277344"/>
     <use xlink:href="#DejaVuSans-Bold-2d" x="2078.857422"/>
     <use xlink:href="#DejaVuSans-Bold-33" x="2120.361328"/>
     <use xlink:href="#DejaVuSans-Bold-30" x="2189.941406"/>
     <use xlink:href="#DejaVuSans-Bold-20" x="2259.521484"/>
     <use xlink:href="#DejaVuSans-Bold-64" x="2294.335938"/>
     <use xlink:href="#DejaVuSans-Bold-61" x="2365.917969"/>
     <use xlink:href="#DejaVuSans-Bold-79" x="2430.273438"/>
     <use xlink:href="#DejaVuSans-Bold-73" x="2495.458984"/>
     <use xlink:href="#DejaVuSans-Bold-29" x="2554.980469"/>
    </g>
   </g>
   <g id="legend_1">
    <g id="patch_7">
     <path d="M 372.899688 105.99625 
L 490.941875 105.99625 
Q 492.941875 105.99625 492.941875 103.99625 
L 492.941875 75.64 
Q 492.941875 73.64 490.941875 73.64 
L 372.899688 73.64 
Q 370.899688 73.64 370.899688 75.64 
L 370.899688 103.99625 
Q 370.899688 105.99625 372.899688 105.99625 
z
" style="fill: #ffffff; opacity: 0.8; stroke: #cccccc; stroke-linejoin: miter"/>
    </g>
    <g id="line2d_36">
     <path d="M 374.899688 81.738437 
L 384.899688 81.738437 
L 394.899688 81.738437 
" style="fill: none; stroke: #dc2626; stroke-width: 3; stroke-linecap: square"/>
    </g>
    <g id="text_20">
     <!-- Cumulative RR -->
     <g transform="translate(402.899688 85.238437) scale(0.1 -0.1)">
      <use xlink:href="#DejaVuSans-43"/>
      <use xlink:href="#DejaVuSans-75" x="69.824219"/>
      <use xlink:href="#DejaVuSans-6d" x="133.203125"/>
      <use xlink:href="#DejaVuSans-75" x="230.615234"/>
      <use xlink:href="#DejaVuSans-6c" x="293.994141"/>
      <use xlink:href="#DejaVuSans-61" x="321.777344"/>
      <use xlink:href="#DejaVuSans-74" x="383.056641"/>
      <use xlink:href="#DejaVuSans-69" x="422.265625"/>
      <use xlink:href="#DejaVuSans-76" x="450.048828"/>
      <use xlink:href="#DejaVuSans-65" x="509.228516"/>
      <use xlink:href="#DejaVuSans-20" x="570.751953"/>
      <use xlink:href="#DejaVuSans-52" x="602.539062"/>
      <use xlink:href="#DejaVuSans-52" x="672.021484"/>
     </g>
    </g>
    <g id="line2d_37">
     <path d="M 374.899688 96.416562 
L 384.899688 96.416562 
L 394.899688 96.416562 
" style="fill: none; stroke-dasharray: 1.5,2.475; stroke-dashoffset: 0; stroke: #808080; stroke-opacity: 0.5; stroke-width: 1.5"/>
    </g>
    <g id="text_21">
     <!-- Reference (25°C) -->
     <g transform="translate(402.899688 99.916562) scale(0.1 -0.1)">
      <defs>
       <path id="DejaVuSans-66" d="M 2375 4863 
L 2375 4384 
L 1825 4384 
Q 1516 4384 1395 4259 
Q 1275 4134 1275 3809 
L 1275 3500 
L 2222 3500 
L 2222 3053 
L 1275 3053 
L 1275 0 
L 697 0 
L 697 3053 
L 147 3053 
L 147 3500 
L 697 3500 
L 697 3744 
Q 697 4328 969 4595 
Q 1241 4863 1831 4863 
L 2375 4863 
z
" transform="scale(0.015625)"/>
       <path id="DejaVuSans-6e" d="M 3513 2113 
L 3513 0 
L 2938 0 
L 2938 2094 
Q 2938 2591 2744 2837 
Q 2550 3084 2163 3084 
Q 1697 3084 1428 2787 
Q 1159 2491 1159 1978 
L 1159 0 
L 581 0 
L 581 3500 
L 1159 3500 
L 1159 2956 
Q 1366 3272 1645 3428 
Q 1925 3584 2291 3584 
Q 2894 3584 3203 3211 
Q 3513 2838 3513 2113 
z
" transform="scale(0.015625)"/>
       <path id="DejaVuSans-63" d="M 3122 3366 
L 3122 2828 
Q 2878 2963 2633 3030 
Q 2388 3097 2138 3097 
Q 1578 3097 1268 2742 
Q 959 2388 959 1747 
Q 959 1106 1268 751 
Q 1578 397 2138 397 
Q 2388 397 2633 464 
Q 2878 531 3122 666 
L 3122 134 
Q 2881 22 2623 -34 
Q 2366 -91 2075 -91 
Q 1284 -91 818 406 
Q 353 903 353 1747 
Q 353 2603 823 3093 
Q 1294 3584 2113 3584 
Q 2378 3584 2631 3529 
Q 2884 3475 3122 3366 
z
" transform="scale(0.015625)"/>
      </defs>
      <use xlink:href="#DejaVuSans-52"/>
      <use xlink:href="#DejaVuSans-65" x="64.982422"/>
      <use xlink:href="#DejaVuSans-66" x="126.505859"/>
      <use xlink:href="#DejaVuSans-65" x="161.710938"/>
      <use xlink:href="#DejaVuSans-72" x="223.234375"/>
      <use xlink:href="#DejaVuSans-65" x="262.097656"/>
      <use xlink:href="#DejaVuSans-6e" x="323.621094"/>
      <use xlink:href="#DejaVuSans-63" x="387"/>
      <use xlink:href="#DejaVuSans-65" x="441.980469"/>
      <use xlink:href="#DejaVuSans-20" x="503.503906"/>
      <use xlink:href="#DejaVuSans-28" x="535.291016"/>
      <use xlink:href="#DejaVuSans-32" x="574.304688"/>
      <use xlink:href="#DejaVuSans-35" x="637.927734"/>
      <use xlink:href="#DejaVuSans-b0" x="701.550781"/>
      <use xlink:href="#DejaVuSans-43" x="751.550781"/>
      <use xlink:href="#DejaVuSans-29" x="821.375"/>
     </g>
    </g>
   </g>
  </g>
  <g id="axes_2">
   <g id="patch_8">
    <path d="M 547.506875 386.8 
L 993.369375 386.8 
L 993.369375 68.64 
L 547.506875 68.64 
z
" style="fill: #ffffff"/>
   </g>
   <g id="PolyCollection_2">
    <defs>
     <path id="mf38e4efab8" d="M 567.773352 -135.019523 
L 567.773352 -71.387523 
L 571.86759 -71.395082 
L 575.961828 -71.403357 
L 580.056066 -71.412415 
L 584.150304 -71.422328 
L 588.244541 -71.433178 
L 592.338779 -71.445053 
L 596.433017 -71.458047 
L 600.527255 -71.472266 
L 604.621493 -71.487823 
L 608.715731 -71.504844 
L 612.809968 -71.523464 
L 616.904206 -71.543832 
L 620.998444 -71.566107 
L 625.092682 -71.590468 
L 629.18692 -71.617104 
L 633.281158 -71.646224 
L 637.375395 -71.678054 
L 641.469633 -71.712841 
L 645.563871 -71.750851 
L 649.658109 -71.792375 
L 653.752347 -71.837726 
L 657.846585 -71.887245 
L 661.940822 -71.941299 
L 666.03506 -72.000286 
L 670.129298 -72.064634 
L 674.223536 -72.134805 
L 678.317774 -72.211297 
L 682.412012 -72.294641 
L 686.506249 -72.385409 
L 690.600487 -72.484213 
L 694.694725 -72.591702 
L 698.788963 -72.708571 
L 702.883201 -72.835552 
L 706.977439 -72.973423 
L 711.071676 -73.123 
L 715.165914 -73.285141 
L 719.260152 -73.460739 
L 723.35439 -73.650724 
L 727.448628 -73.856054 
L 731.542866 -74.07771 
L 735.637103 -74.316691 
L 739.731341 -74.574004 
L 743.825579 -74.850653 
L 747.919817 -75.147626 
L 752.014055 -75.465883 
L 756.108293 -75.806335 
L 760.20253 -76.169833 
L 764.296768 -76.557139 
L 768.391006 -76.968913 
L 772.485244 -77.405682 
L 776.579482 -77.867824 
L 780.67372 -78.355538 
L 784.767957 -78.868824 
L 788.862195 -79.407462 
L 792.956433 -79.970986 
L 797.050671 -80.558675 
L 801.144909 -81.169536 
L 805.239147 -81.802298 
L 809.333384 -82.455411 
L 813.427622 -83.127049 
L 817.52186 -83.815126 
L 821.616098 -84.517313 
L 825.710336 -85.231066 
L 829.804574 -85.953662 
L 833.898811 -86.682234 
L 837.993049 -87.413819 
L 842.087287 -88.145403 
L 846.181525 -88.873975 
L 850.275763 -89.596571 
L 854.370001 -90.310325 
L 858.464238 -91.012512 
L 862.558476 -91.700589 
L 866.652714 -92.372227 
L 870.746952 -93.025339 
L 874.84119 -93.658101 
L 878.935428 -94.268963 
L 883.029665 -94.856652 
L 887.123903 -95.420176 
L 891.218141 -95.958813 
L 895.312379 -96.4721 
L 899.406617 -96.959814 
L 903.500855 -97.421955 
L 907.595092 -97.858725 
L 911.68933 -98.270498 
L 915.783568 -98.657805 
L 919.877806 -99.021302 
L 923.972044 -99.361755 
L 928.066282 -99.680011 
L 932.160519 -99.976985 
L 936.254757 -100.253633 
L 940.348995 -100.510947 
L 944.443233 -100.749928 
L 948.537471 -100.971584 
L 952.631709 -101.176913 
L 956.725946 -101.366898 
L 960.820184 -101.542497 
L 964.914422 -101.704638 
L 969.00866 -101.854215 
L 973.102898 -101.992086 
L 973.102898 -165.624086 
L 973.102898 -165.624086 
L 969.00866 -165.486215 
L 964.914422 -165.336638 
L 960.820184 -165.174497 
L 956.725946 -164.998898 
L 952.631709 -164.808913 
L 948.537471 -164.603584 
L 944.443233 -164.381928 
L 940.348995 -164.142947 
L 936.254757 -163.885633 
L 932.160519 -163.608985 
L 928.066282 -163.312011 
L 923.972044 -162.993755 
L 919.877806 -162.653302 
L 915.783568 -162.289805 
L 911.68933 -161.902498 
L 907.595092 -161.490725 
L 903.500855 -161.053955 
L 899.406617 -160.591814 
L 895.312379 -160.1041 
L 891.218141 -159.590813 
L 887.123903 -159.052176 
L 883.029665 -158.488652 
L 878.935428 -157.900963 
L 874.84119 -157.290101 
L 870.746952 -156.657339 
L 866.652714 -156.004227 
L 862.558476 -155.332589 
L 858.464238 -154.644512 
L 854.370001 -153.942325 
L 850.275763 -153.228571 
L 846.181525 -152.505975 
L 842.087287 -151.777403 
L 837.993049 -151.045819 
L 833.898811 -150.314234 
L 829.804574 -149.585662 
L 825.710336 -148.863066 
L 821.616098 -148.149313 
L 817.52186 -147.447126 
L 813.427622 -146.759049 
L 809.333384 -146.087411 
L 805.239147 -145.434298 
L 801.144909 -144.801536 
L 797.050671 -144.190675 
L 792.956433 -143.602986 
L 788.862195 -143.039462 
L 784.767957 -142.500824 
L 780.67372 -141.987538 
L 776.579482 -141.499824 
L 772.485244 -141.037682 
L 768.391006 -140.600913 
L 764.296768 -140.189139 
L 760.20253 -139.801833 
L 756.108293 -139.438335 
L 752.014055 -139.097883 
L 747.919817 -138.779626 
L 743.825579 -138.482653 
L 739.731341 -138.206004 
L 735.637103 -137.948691 
L 731.542866 -137.70971 
L 727.448628 -137.488054 
L 723.35439 -137.282724 
L 719.260152 -137.092739 
L 715.165914 -136.917141 
L 711.071676 -136.755 
L 706.977439 -136.605423 
L 702.883201 -136.467552 
L 698.788963 -136.340571 
L 694.694725 -136.223702 
L 690.600487 -136.116213 
L 686.506249 -136.017409 
L 682.412012 -135.926641 
L 678.317774 -135.843297 
L 674.223536 -135.766805 
L 670.129298 -135.696634 
L 666.03506 -135.632286 
L 661.940822 -135.573299 
L 657.846585 -135.519245 
L 653.752347 -135.469726 
L 649.658109 -135.424375 
L 645.563871 -135.382851 
L 641.469633 -135.344841 
L 637.375395 -135.310054 
L 633.281158 -135.278224 
L 629.18692 -135.249104 
L 625.092682 -135.222468 
L 620.998444 -135.198107 
L 616.904206 -135.175832 
L 612.809968 -135.155464 
L 608.715731 -135.136844 
L 604.621493 -135.119823 
L 600.527255 -135.104266 
L 596.433017 -135.090047 
L 592.338779 -135.077053 
L 588.244541 -135.065178 
L 584.150304 -135.054328 
L 580.056066 -135.044415 
L 575.961828 -135.035357 
L 571.86759 -135.027082 
L 567.773352 -135.019523 
z
" style="stroke: #ff7f00; stroke-opacity: 0.2"/>
    </defs>
    <g clip-path="url(#pff6c73aaf8)">
     <use xlink:href="#mf38e4efab8" x="0" y="426.291875" style="fill: #ff7f00; fill-opacity: 0.2; stroke: #ff7f00; stroke-opacity: 0.2"/>
    </g>
   </g>
   <g id="matplotlib.axis_3">
    <g id="xtick_8">
     <g id="line2d_38">
      <path d="M 567.773352 386.8 
L 567.773352 68.64 
" clip-path="url(#pff6c73aaf8)" style="fill: none; stroke: #b0b0b0; stroke-opacity: 0.3; stroke-width: 0.8; stroke-linecap: square"/>
     </g>
     <g id="line2d_39">
      <g>
       <use xlink:href="#m16c6772329" x="567.773352" y="386.8" style="stroke: #000000; stroke-width: 0.8"/>
      </g>
     </g>
     <g id="text_22">
      <!-- 10 -->
      <g transform="translate(561.410852 401.398437) scale(0.1 -0.1)">
       <use xlink:href="#DejaVuSans-31"/>
       <use xlink:href="#DejaVuSans-30" x="63.623047"/>
      </g>
     </g>
    </g>
    <g id="xtick_9">
     <g id="line2d_40">
      <path d="M 635.328277 386.8 
L 635.328277 68.64 
" clip-path="url(#pff6c73aaf8)" style="fill: none; stroke: #b0b0b0; stroke-opacity: 0.3; stroke-width: 0.8; stroke-linecap: square"/>
     </g>
     <g id="line2d_41">
      <g>
       <use xlink:href="#m16c6772329" x="635.328277" y="386.8" style="stroke: #000000; stroke-width: 0.8"/>
      </g>
     </g>
     <g id="text_23">
      <!-- 15 -->
      <g transform="translate(628.965777 401.398437) scale(0.1 -0.1)">
       <use xlink:href="#DejaVuSans-31"/>
       <use xlink:href="#DejaVuSans-35" x="63.623047"/>
      </g>
     </g>
    </g>
    <g id="xtick_10">
     <g id="line2d_42">
      <path d="M 702.883201 386.8 
L 702.883201 68.64 
" clip-path="url(#pff6c73aaf8)" style="fill: none; stroke: #b0b0b0; stroke-opacity: 0.3; stroke-width: 0.8; stroke-linecap: square"/>
     </g>
     <g id="line2d_43">
      <g>
       <use xlink:href="#m16c6772329" x="702.883201" y="386.8" style="stroke: #000000; stroke-width: 0.8"/>
      </g>
     </g>
     <g id="text_24">
      <!-- 20 -->
      <g transform="translate(696.520701 401.398437) scale(0.1 -0.1)">
       <use xlink:href="#DejaVuSans-32"/>
       <use xlink:href="#DejaVuSans-30" x="63.623047"/>
      </g>
     </g>
    </g>
    <g id="xtick_11">
     <g id="line2d_44">
      <path d="M 770.438125 386.8 
L 770.438125 68.64 
" clip-path="url(#pff6c73aaf8)" style="fill: none; stroke: #b0b0b0; stroke-opacity: 0.3; stroke-width: 0.8; stroke-linecap: square"/>
     </g>
     <g id="line2d_45">
      <g>
       <use xlink:href="#m16c6772329" x="770.438125" y="386.8" style="stroke: #000000; stroke-width: 0.8"/>
      </g>
     </g>
     <g id="text_25">
      <!-- 25 -->
      <g transform="translate(764.075625 401.398437) scale(0.1 -0.1)">
       <use xlink:href="#DejaVuSans-32"/>
       <use xlink:href="#DejaVuSans-35" x="63.623047"/>
      </g>
     </g>
    </g>
    <g id="xtick_12">
     <g id="line2d_46">
      <path d="M 837.993049 386.8 
L 837.993049 68.64 
" clip-path="url(#pff6c73aaf8)" style="fill: none; stroke: #b0b0b0; stroke-opacity: 0.3; stroke-width: 0.8; stroke-linecap: square"/>
     </g>
     <g id="line2d_47">
      <g>
       <use xlink:href="#m16c6772329" x="837.993049" y="386.8" style="stroke: #000000; stroke-width: 0.8"/>
      </g>
     </g>
     <g id="text_26">
      <!-- 30 -->
      <g transform="translate(831.630549 401.398437) scale(0.1 -0.1)">
       <use xlink:href="#DejaVuSans-33"/>
       <use xlink:href="#DejaVuSans-30" x="63.623047"/>
      </g>
     </g>
    </g>
    <g id="xtick_13">
     <g id="line2d_48">
      <path d="M 905.547973 386.8 
L 905.547973 68.64 
" clip-path="url(#pff6c73aaf8)" style="fill: none; stroke: #b0b0b0; stroke-opacity: 0.3; stroke-width: 0.8; stroke-linecap: square"/>
     </g>
     <g id="line2d_49">
      <g>
       <use xlink:href="#m16c6772329" x="905.547973" y="386.8" style="stroke: #000000; stroke-width: 0.8"/>
      </g>
     </g>
     <g id="text_27">
      <!-- 35 -->
      <g transform="translate(899.185473 401.398437) scale(0.1 -0.1)">
       <use xlink:href="#DejaVuSans-33"/>
       <use xlink:href="#DejaVuSans-35" x="63.623047"/>
      </g>
     </g>
    </g>
    <g id="xtick_14">
     <g id="line2d_50">
      <path d="M 973.102898 386.8 
L 973.102898 68.64 
" clip-path="url(#pff6c73aaf8)" style="fill: none; stroke: #b0b0b0; stroke-opacity: 0.3; stroke-width: 0.8; stroke-linecap: square"/>
     </g>
     <g id="line2d_51">
      <g>
       <use xlink:href="#m16c6772329" x="973.102898" y="386.8" style="stroke: #000000; stroke-width: 0.8"/>
      </g>
     </g>
     <g id="text_28">
      <!-- 40 -->
      <g transform="translate(966.740398 401.398437) scale(0.1 -0.1)">
       <use xlink:href="#DejaVuSans-34"/>
       <use xlink:href="#DejaVuSans-30" x="63.623047"/>
      </g>
     </g>
    </g>
    <g id="text_29">
     <!-- Temperature (°C) -->
     <g transform="translate(718.65625 416.59625) scale(0.12 -0.12)">
      <use xlink:href="#DejaVuSans-54"/>
      <use xlink:href="#DejaVuSans-65" x="44.083984"/>
      <use xlink:href="#DejaVuSans-6d" x="105.607422"/>
      <use xlink:href="#DejaVuSans-70" x="203.019531"/>
      <use xlink:href="#DejaVuSans-65" x="266.496094"/>
      <use xlink:href="#DejaVuSans-72" x="328.019531"/>
      <use xlink:href="#DejaVuSans-61" x="369.132812"/>
      <use xlink:href="#DejaVuSans-74" x="430.412109"/>
      <use xlink:href="#DejaVuSans-75" x="469.621094"/>
      <use xlink:href="#DejaVuSans-72" x="533"/>
      <use xlink:href="#DejaVuSans-65" x="571.863281"/>
      <use xlink:href="#DejaVuSans-20" x="633.386719"/>
      <use xlink:href="#DejaVuSans-28" x="665.173828"/>
      <use xlink:href="#DejaVuSans-b0" x="704.1875"/>
      <use xlink:href="#DejaVuSans-43" x="754.1875"/>
      <use xlink:href="#DejaVuSans-29" x="824.011719"/>
     </g>
    </g>
   </g>
   <g id="matplotlib.axis_4">
    <g id="ytick_10">
     <g id="line2d_52">
      <path d="M 547.506875 386.8 
L 993.369375 386.8 
" clip-path="url(#pff6c73aaf8)" style="fill: none; stroke: #b0b0b0; stroke-opacity: 0.3; stroke-width: 0.8; stroke-linecap: square"/>
     </g>
     <g id="line2d_53">
      <g>
       <use xlink:href="#m9116be3d1d" x="547.506875" y="386.8" style="stroke: #000000; stroke-width: 0.8"/>
      </g>
     </g>
     <g id="text_30">
      <!-- 0.9 -->
      <g transform="translate(524.60375 390.599219) scale(0.1 -0.1)">
       <use xlink:href="#DejaVuSans-30"/>
       <use xlink:href="#DejaVuSans-2e" x="63.623047"/>
       <use xlink:href="#DejaVuSans-39" x="95.410156"/>
      </g>
     </g>
    </g>
    <g id="ytick_11">
     <g id="line2d_54">
      <path d="M 547.506875 323.168 
L 993.369375 323.168 
" clip-path="url(#pff6c73aaf8)" style="fill: none; stroke: #b0b0b0; stroke-opacity: 0.3; stroke-width: 0.8; stroke-linecap: square"/>
     </g>
     <g id="line2d_55">
      <g>
       <use xlink:href="#m9116be3d1d" x="547.506875" y="323.168" style="stroke: #000000; stroke-width: 0.8"/>
      </g>
     </g>
     <g id="text_31">
      <!-- 1.0 -->
      <g transform="translate(524.60375 326.967219) scale(0.1 -0.1)">
       <use xlink:href="#DejaVuSans-31"/>
       <use xlink:href="#DejaVuSans-2e" x="63.623047"/>
       <use xlink:href="#DejaVuSans-30" x="95.410156"/>
      </g>
     </g>
    </g>
    <g id="ytick_12">
     <g id="line2d_56">
      <path d="M 547.506875 259.536 
L 993.369375 259.536 
" clip-path="url(#pff6c73aaf8)" style="fill: none; stroke: #b0b0b0; stroke-opacity: 0.3; stroke-width: 0.8; stroke-linecap: square"/>
     </g>
     <g id="line2d_57">
      <g>
       <use xlink:href="#m9116be3d1d" x="547.506875" y="259.536" style="stroke: #000000; stroke-width: 0.8"/>
      </g>
     </g>
     <g id="text_32">
      <!-- 1.1 -->
      <g transform="translate(524.60375 263.335219) scale(0.1 -0.1)">
       <use xlink:href="#DejaVuSans-31"/>
       <use xlink:href="#DejaVuSans-2e" x="63.623047"/>
       <use xlink:href="#DejaVuSans-31" x="95.410156"/>
      </g>
     </g>
    </g>
    <g id="ytick_13">
     <g id="line2d_58">
      <path d="M 547.506875 195.904 
L 993.369375 195.904 
" clip-path="url(#pff6c73aaf8)" style="fill: none; stroke: #b0b0b0; stroke-opacity: 0.3; stroke-width: 0.8; stroke-linecap: square"/>
     </g>
     <g id="line2d_59">
      <g>
       <use xlink:href="#m9116be3d1d" x="547.506875" y="195.904" style="stroke: #000000; stroke-width: 0.8"/>
      </g>
     </g>
     <g id="text_33">
      <!-- 1.2 -->
      <g transform="translate(524.60375 199.703219) scale(0.1 -0.1)">
       <use xlink:href="#DejaVuSans-31"/>
       <use xlink:href="#DejaVuSans-2e" x="63.623047"/>
       <use xlink:href="#DejaVuSans-32" x="95.410156"/>
      </g>
     </g>
    </g>
    <g id="ytick_14">
     <g id="line2d_60">
      <path d="M 547.506875 132.272 
L 993.369375 132.272 
" clip-path="url(#pff6c73aaf8)" style="fill: none; stroke: #b0b0b0; stroke-opacity: 0.3; stroke-width: 0.8; stroke-linecap: square"/>
     </g>
     <g id="line2d_61">
      <g>
       <use xlink:href="#m9116be3d1d" x="547.506875" y="132.272" style="stroke: #000000; stroke-width: 0.8"/>
      </g>
     </g>
     <g id="text_34">
      <!-- 1.3 -->
      <g transform="translate(524.60375 136.071219) scale(0.1 -0.1)">
       <use xlink:href="#DejaVuSans-31"/>
       <use xlink:href="#DejaVuSans-2e" x="63.623047"/>
       <use xlink:href="#DejaVuSans-33" x="95.410156"/>
      </g>
     </g>
    </g>
    <g id="ytick_15">
     <g id="line2d_62">
      <path d="M 547.506875 68.64 
L 993.369375 68.64 
" clip-path="url(#pff6c73aaf8)" style="fill: none; stroke: #b0b0b0; stroke-opacity: 0.3; stroke-width: 0.8; stroke-linecap: square"/>
     </g>
     <g id="line2d_63">
      <g>
       <use xlink:href="#m9116be3d1d" x="547.506875" y="68.64" style="stroke: #000000; stroke-width: 0.8"/>
      </g>
     </g>
     <g id="text_35">
      <!-- 1.4 -->
      <g transform="translate(524.60375 72.439219) scale(0.1 -0.1)">
       <use xlink:href="#DejaVuSans-31"/>
       <use xlink:href="#DejaVuSans-2e" x="63.623047"/>
       <use xlink:href="#DejaVuSans-34" x="95.410156"/>
      </g>
     </g>
    </g>
    <g id="text_36">
     <!-- Cumulative Relative Risk -->
     <g transform="translate(518.108125 302.411562) rotate(-90) scale(0.12 -0.12)">
      <use xlink:href="#DejaVuSans-43"/>
      <use xlink:href="#DejaVuSans-75" x="69.824219"/>
      <use xlink:href="#DejaVuSans-6d" x="133.203125"/>
      <use xlink:href="#DejaVuSans-75" x="230.615234"/>
      <use xlink:href="#DejaVuSans-6c" x="293.994141"/>
      <use xlink:href="#DejaVuSans-61" x="321.777344"/>
      <use xlink:href="#DejaVuSans-74" x="383.056641"/>
      <use xlink:href="#DejaVuSans-69" x="422.265625"/>
      <use xlink:href="#DejaVuSans-76" x="450.048828"/>
      <use xlink:href="#DejaVuSans-65" x="509.228516"/>
      <use xlink:href="#DejaVuSans-20" x="570.751953"/>
      <use xlink:href="#DejaVuSans-52" x="602.539062"/>
      <use xlink:href="#DejaVuSans-65" x="667.521484"/>
      <use xlink:href="#DejaVuSans-6c" x="729.044922"/>
      <use xlink:href="#DejaVuSans-61" x="756.828125"/>
      <use xlink:href="#DejaVuSans-74" x="818.107422"/>
      <use xlink:href="#DejaVuSans-69" x="857.316406"/>
      <use xlink:href="#DejaVuSans-76" x="885.099609"/>
      <use xlink:href="#DejaVuSans-65" x="944.279297"/>
      <use xlink:href="#DejaVuSans-20" x="1005.802734"/>
      <use xlink:href="#DejaVuSans-52" x="1037.589844"/>
      <use xlink:href="#DejaVuSans-69" x="1107.072266"/>
      <use xlink:href="#DejaVuSans-73" x="1134.855469"/>
      <use xlink:href="#DejaVuSans-6b" x="1186.955078"/>
     </g>
    </g>
   </g>
   <g id="line2d_64">
    <path d="M 567.773352 323.088352 
L 571.86759 323.080793 
L 575.961828 323.072518 
L 580.056066 323.06346 
L 584.150304 323.053547 
L 588.244541 323.042697 
L 592.338779 323.030822 
L 596.433017 323.017828 
L 600.527255 323.003609 
L 604.621493 322.988052 
L 608.715731 322.971031 
L 612.809968 322.952411 
L 616.904206 322.932043 
L 620.998444 322.909768 
L 625.092682 322.885407 
L 629.18692 322.858771 
L 633.281158 322.829651 
L 637.375395 322.797821 
L 641.469633 322.763034 
L 645.563871 322.725024 
L 649.658109 322.6835 
L 653.752347 322.638149 
L 657.846585 322.58863 
L 661.940822 322.534576 
L 666.03506 322.475589 
L 670.129298 322.411241 
L 674.223536 322.34107 
L 678.317774 322.264578 
L 682.412012 322.181234 
L 686.506249 322.090466 
L 690.600487 321.991662 
L 694.694725 321.884173 
L 698.788963 321.767304 
L 702.883201 321.640323 
L 706.977439 321.502452 
L 711.071676 321.352875 
L 715.165914 321.190734 
L 719.260152 321.015136 
L 723.35439 320.825151 
L 727.448628 320.619821 
L 731.542866 320.398165 
L 735.637103 320.159184 
L 739.731341 319.901871 
L 743.825579 319.625222 
L 747.919817 319.328249 
L 752.014055 319.009992 
L 756.108293 318.66954 
L 760.20253 318.306042 
L 764.296768 317.918736 
L 768.391006 317.506962 
L 772.485244 317.070193 
L 776.579482 316.608051 
L 780.67372 316.120337 
L 784.767957 315.607051 
L 788.862195 315.068413 
L 792.956433 314.504889 
L 797.050671 313.9172 
L 801.144909 313.306339 
L 805.239147 312.673577 
L 809.333384 312.020464 
L 813.427622 311.348826 
L 817.52186 310.660749 
L 821.616098 309.958562 
L 825.710336 309.244809 
L 829.804574 308.522213 
L 833.898811 307.793641 
L 837.993049 307.062056 
L 842.087287 306.330472 
L 846.181525 305.6019 
L 850.275763 304.879304 
L 854.370001 304.16555 
L 858.464238 303.463363 
L 862.558476 302.775286 
L 866.652714 302.103648 
L 870.746952 301.450536 
L 874.84119 300.817774 
L 878.935428 300.206912 
L 883.029665 299.619223 
L 887.123903 299.055699 
L 891.218141 298.517062 
L 895.312379 298.003775 
L 899.406617 297.516061 
L 903.500855 297.05392 
L 907.595092 296.61715 
L 911.68933 296.205377 
L 915.783568 295.81807 
L 919.877806 295.454573 
L 923.972044 295.11412 
L 928.066282 294.795864 
L 932.160519 294.49889 
L 936.254757 294.222242 
L 940.348995 293.964928 
L 944.443233 293.725947 
L 948.537471 293.504291 
L 952.631709 293.298962 
L 956.725946 293.108977 
L 960.820184 292.933378 
L 964.914422 292.771237 
L 969.00866 292.62166 
L 973.102898 292.483789 
" clip-path="url(#pff6c73aaf8)" style="fill: none; stroke: #ff7f00; stroke-width: 3; stroke-linecap: square"/>
   </g>
   <g id="line2d_65">
    <path d="M 547.506875 323.168 
L 993.369375 323.168 
" clip-path="url(#pff6c73aaf8)" style="fill: none; stroke-dasharray: 5.55,2.4; stroke-dashoffset: 0; stroke: #808080; stroke-opacity: 0.5; stroke-width: 1.5"/>
   </g>
   <g id="line2d_66">
    <path d="M 770.438125 386.8 
L 770.438125 68.64 
" clip-path="url(#pff6c73aaf8)" style="fill: none; stroke-dasharray: 1.5,2.475; stroke-dashoffset: 0; stroke: #808080; stroke-opacity: 0.5; stroke-width: 1.5"/>
   </g>
   <g id="patch_9">
    <path d="M 547.506875 386.8 
L 547.506875 68.64 
" style="fill: none; stroke: #000000; stroke-width: 0.8; stroke-linejoin: miter; stroke-linecap: square"/>
   </g>
   <g id="patch_10">
    <path d="M 993.369375 386.8 
L 993.369375 68.64 
" style="fill: none; stroke: #000000; stroke-width: 0.8; stroke-linejoin: miter; stroke-linecap: square"/>
   </g>
   <g id="patch_11">
    <path d="M 547.506875 386.8 
L 993.369375 386.8 
" style="fill: none; stroke: #000000; stroke-width: 0.8; stroke-linejoin: miter; stroke-linecap: square"/>
   </g>
   <g id="patch_12">
    <path d="M 547.506875 68.64 
L 993.369375 68.64 
" style="fill: none; stroke: #000000; stroke-width: 0.8; stroke-linejoin: miter; stroke-linecap: square"/>
   </g>
   <g id="text_37">
    <!-- Glucose: Cumulative Effect (0-10 days) -->
    <g transform="translate(627.994688 62.64) scale(0.13 -0.13)">
     <defs>
      <path id="DejaVuSans-Bold-47" d="M 4781 347 
Q 4331 128 3847 18 
Q 3363 -91 2847 -91 
Q 1681 -91 1000 561 
Q 319 1213 319 2328 
Q 319 3456 1012 4103 
Q 1706 4750 2913 4750 
Q 3378 4750 3804 4662 
Q 4231 4575 4609 4403 
L 4609 3438 
Q 4219 3659 3833 3768 
Q 3447 3878 3059 3878 
Q 2341 3878 1952 3476 
Q 1563 3075 1563 2328 
Q 1563 1588 1938 1184 
Q 2313 781 3003 781 
Q 3191 781 3352 804 
Q 3513 828 3641 878 
L 3641 1784 
L 2906 1784 
L 2906 2591 
L 4781 2591 
L 4781 347 
z
" transform="scale(0.015625)"/>
      <path id="DejaVuSans-Bold-31" d="M 750 831 
L 1813 831 
L 1813 3847 
L 722 3622 
L 722 4441 
L 1806 4666 
L 2950 4666 
L 2950 831 
L 4013 831 
L 4013 0 
L 750 0 
L 750 831 
z
" transform="scale(0.015625)"/>
     </defs>
     <use xlink:href="#DejaVuSans-Bold-47"/>
     <use xlink:href="#DejaVuSans-Bold-6c" x="82.080078"/>
     <use xlink:href="#DejaVuSans-Bold-75" x="116.357422"/>
     <use xlink:href="#DejaVuSans-Bold-63" x="187.548828"/>
     <use xlink:href="#DejaVuSans-Bold-6f" x="246.826172"/>
     <use xlink:href="#DejaVuSans-Bold-73" x="315.527344"/>
     <use xlink:href="#DejaVuSans-Bold-65" x="375.048828"/>
     <use xlink:href="#DejaVuSans-Bold-3a" x="442.871094"/>
     <use xlink:href="#DejaVuSans-Bold-20" x="482.861328"/>
     <use xlink:href="#DejaVuSans-Bold-43" x="517.675781"/>
     <use xlink:href="#DejaVuSans-Bold-75" x="591.064453"/>
     <use xlink:href="#DejaVuSans-Bold-6d" x="662.255859"/>
     <use xlink:href="#DejaVuSans-Bold-75" x="766.455078"/>
     <use xlink:href="#DejaVuSans-Bold-6c" x="837.646484"/>
     <use xlink:href="#DejaVuSans-Bold-61" x="871.923828"/>
     <use xlink:href="#DejaVuSans-Bold-74" x="939.404297"/>
     <use xlink:href="#DejaVuSans-Bold-69" x="987.207031"/>
     <use xlink:href="#DejaVuSans-Bold-76" x="1021.484375"/>
     <use xlink:href="#DejaVuSans-Bold-65" x="1086.669922"/>
     <use xlink:href="#DejaVuSans-Bold-20" x="1154.492188"/>
     <use xlink:href="#DejaVuSans-Bold-45" x="1189.306641"/>
     <use xlink:href="#DejaVuSans-Bold-66" x="1257.617188"/>
     <use xlink:href="#DejaVuSans-Bold-66" x="1301.123047"/>
     <use xlink:href="#DejaVuSans-Bold-65" x="1344.628906"/>
     <use xlink:href="#DejaVuSans-Bold-63" x="1412.451172"/>
     <use xlink:href="#DejaVuSans-Bold-74" x="1471.728516"/>
     <use xlink:href="#DejaVuSans-Bold-20" x="1519.53125"/>
     <use xlink:href="#DejaVuSans-Bold-28" x="1554.345703"/>
     <use xlink:href="#DejaVuSans-Bold-30" x="1600.048828"/>
     <use xlink:href="#DejaVuSans-Bold-2d" x="1669.628906"/>
     <use xlink:href="#DejaVuSans-Bold-31" x="1711.132812"/>
     <use xlink:href="#DejaVuSans-Bold-30" x="1780.712891"/>
     <use xlink:href="#DejaVuSans-Bold-20" x="1850.292969"/>
     <use xlink:href="#DejaVuSans-Bold-64" x="1885.107422"/>
     <use xlink:href="#DejaVuSans-Bold-61" x="1956.689453"/>
     <use xlink:href="#DejaVuSans-Bold-79" x="2021.044922"/>
     <use xlink:href="#DejaVuSans-Bold-73" x="2086.230469"/>
     <use xlink:href="#DejaVuSans-Bold-29" x="2145.751953"/>
    </g>
   </g>
   <g id="legend_2">
    <g id="patch_13">
     <path d="M 868.327188 105.99625 
L 986.369375 105.99625 
Q 988.369375 105.99625 988.369375 103.99625 
L 988.369375 75.64 
Q 988.369375 73.64 986.369375 73.64 
L 868.327188 73.64 
Q 866.327188 73.64 866.327188 75.64 
L 866.327188 103.99625 
Q 866.327188 105.99625 868.327188 105.99625 
z
" style="fill: #ffffff; opacity: 0.8; stroke: #cccccc; stroke-linejoin: miter"/>
    </g>
    <g id="line2d_67">
     <path d="M 870.327188 81.738437 
L 880.327188 81.738437 
L 890.327188 81.738437 
" style="fill: none; stroke: #ff7f00; stroke-width: 3; stroke-linecap: square"/>
    </g>
    <g id="text_38">
     <!-- Cumulative RR -->
     <g transform="translate(898.327188 85.238437) scale(0.1 -0.1)">
      <use xlink:href="#DejaVuSans-43"/>
      <use xlink:href="#DejaVuSans-75" x="69.824219"/>
      <use xlink:href="#DejaVuSans-6d" x="133.203125"/>
      <use xlink:href="#DejaVuSans-75" x="230.615234"/>
      <use xlink:href="#DejaVuSans-6c" x="293.994141"/>
      <use xlink:href="#DejaVuSans-61" x="321.777344"/>
      <use xlink:href="#DejaVuSans-74" x="383.056641"/>
      <use xlink:href="#DejaVuSans-69" x="422.265625"/>
      <use xlink:href="#DejaVuSans-76" x="450.048828"/>
      <use xlink:href="#DejaVuSans-65" x="509.228516"/>
      <use xlink:href="#DejaVuSans-20" x="570.751953"/>
      <use xlink:href="#DejaVuSans-52" x="602.539062"/>
      <use xlink:href="#DejaVuSans-52" x="672.021484"/>
     </g>
    </g>
    <g id="line2d_68">
     <path d="M 870.327188 96.416562 
L 880.327188 96.416562 
L 890.327188 96.416562 
" style="fill: none; stroke-dasharray: 1.5,2.475; stroke-dashoffset: 0; stroke: #808080; stroke-opacity: 0.5; stroke-width: 1.5"/>
    </g>
    <g id="text_39">
     <!-- Reference (25°C) -->
     <g transform="translate(898.327188 99.916562) scale(0.1 -0.1)">
      <use xlink:href="#DejaVuSans-52"/>
      <use xlink:href="#DejaVuSans-65" x="64.982422"/>
      <use xlink:href="#DejaVuSans-66" x="126.505859"/>
      <use xlink:href="#DejaVuSans-65" x="161.710938"/>
      <use xlink:href="#DejaVuSans-72" x="223.234375"/>
      <use xlink:href="#DejaVuSans-65" x="262.097656"/>
      <use xlink:href="#DejaVuSans-6e" x="323.621094"/>
      <use xlink:href="#DejaVuSans-63" x="387"/>
      <use xlink:href="#DejaVuSans-65" x="441.980469"/>
      <use xlink:href="#DejaVuSans-20" x="503.503906"/>
      <use xlink:href="#DejaVuSans-28" x="535.291016"/>
      <use xlink:href="#DejaVuSans-32" x="574.304688"/>
      <use xlink:href="#DejaVuSans-35" x="637.927734"/>
      <use xlink:href="#DejaVuSans-b0" x="701.550781"/>
      <use xlink:href="#DejaVuSans-43" x="751.550781"/>
      <use xlink:href="#DejaVuSans-29" x="821.375"/>
     </g>
    </g>
   </g>
  </g>
  <g id="text_40">
   <!-- Cumulative Climate-Health Effects Over All Lags -->
   <g style="fill: #00539b" transform="translate(282.629375 19.3575) scale(0.16 -0.16)">
    <defs>
     <path id="DejaVuSans-Bold-48" d="M 588 4666 
L 1791 4666 
L 1791 2888 
L 3566 2888 
L 3566 4666 
L 4769 4666 
L 4769 0 
L 3566 0 
L 3566 1978 
L 1791 1978 
L 1791 0 
L 588 0 
L 588 4666 
z
" transform="scale(0.015625)"/>
     <path id="DejaVuSans-Bold-68" d="M 4056 2131 
L 4056 0 
L 2931 0 
L 2931 347 
L 2931 1625 
Q 2931 2084 2911 2256 
Q 2891 2428 2841 2509 
Q 2775 2619 2662 2680 
Q 2550 2741 2406 2741 
Q 2056 2741 1856 2470 
Q 1656 2200 1656 1722 
L 1656 0 
L 538 0 
L 538 4863 
L 1656 4863 
L 1656 2988 
Q 1909 3294 2193 3439 
Q 2478 3584 2822 3584 
Q 3428 3584 3742 3212 
Q 4056 2841 4056 2131 
z
" transform="scale(0.015625)"/>
     <path id="DejaVuSans-Bold-4f" d="M 2719 3878 
Q 2169 3878 1866 3472 
Q 1563 3066 1563 2328 
Q 1563 1594 1866 1187 
Q 2169 781 2719 781 
Q 3272 781 3575 1187 
Q 3878 1594 3878 2328 
Q 3878 3066 3575 3472 
Q 3272 3878 2719 3878 
z
M 2719 4750 
Q 3844 4750 4481 4106 
Q 5119 3463 5119 2328 
Q 5119 1197 4481 553 
Q 3844 -91 2719 -91 
Q 1597 -91 958 553 
Q 319 1197 319 2328 
Q 319 3463 958 4106 
Q 1597 4750 2719 4750 
z
" transform="scale(0.015625)"/>
     <path id="DejaVuSans-Bold-41" d="M 3419 850 
L 1538 850 
L 1241 0 
L 31 0 
L 1759 4666 
L 3194 4666 
L 4922 0 
L 3713 0 
L 3419 850 
z
M 1838 1716 
L 3116 1716 
L 2478 3572 
L 1838 1716 
z
" transform="scale(0.015625)"/>
     <path id="DejaVuSans-Bold-4c" d="M 588 4666 
L 1791 4666 
L 1791 909 
L 3903 909 
L 3903 0 
L 588 0 
L 588 4666 
z
" transform="scale(0.015625)"/>
     <path id="DejaVuSans-Bold-67" d="M 2919 594 
Q 2688 288 2409 144 
Q 2131 0 1766 0 
Q 1125 0 706 504 
Q 288 1009 288 1791 
Q 288 2575 706 3076 
Q 1125 3578 1766 3578 
Q 2131 3578 2409 3434 
Q 2688 3291 2919 2981 
L 2919 3500 
L 4044 3500 
L 4044 353 
Q 4044 -491 3511 -936 
Q 2978 -1381 1966 -1381 
Q 1638 -1381 1331 -1331 
Q 1025 -1281 716 -1178 
L 716 -306 
Q 1009 -475 1290 -558 
Q 1572 -641 1856 -641 
Q 2406 -641 2662 -400 
Q 2919 -159 2919 353 
L 2919 594 
z
M 2181 2772 
Q 1834 2772 1640 2515 
Q 1447 2259 1447 1791 
Q 1447 1309 1634 1061 
Q 1822 813 2181 813 
Q 2531 813 2725 1069 
Q 2919 1325 2919 1791 
Q 2919 2259 2725 2515 
Q 2531 2772 2181 2772 
z
" transform="scale(0.015625)"/>
    </defs>
    <use xlink:href="#DejaVuSans-Bold-43"/>
    <use xlink:href="#DejaVuSans-Bold-75" x="73.388672"/>
    <use xlink:href="#DejaVuSans-Bold-6d" x="144.580078"/>
    <use xlink:href="#DejaVuSans-Bold-75" x="248.779297"/>
    <use xlink:href="#DejaVuSans-Bold-6c" x="319.970703"/>
    <use xlink:href="#DejaVuSans-Bold-61" x="354.248047"/>
    <use xlink:href="#DejaVuSans-Bold-74" x="421.728516"/>
    <use xlink:href="#DejaVuSans-Bold-69" x="469.53125"/>
    <use xlink:href="#DejaVuSans-Bold-76" x="503.808594"/>
    <use xlink:href="#DejaVuSans-Bold-65" x="568.994141"/>
    <use xlink:href="#DejaVuSans-Bold-20" x="636.816406"/>
    <use xlink:href="#DejaVuSans-Bold-43" x="671.630859"/>
    <use xlink:href="#DejaVuSans-Bold-6c" x="745.019531"/>
    <use xlink:href="#DejaVuSans-Bold-69" x="779.296875"/>
    <use xlink:href="#DejaVuSans-Bold-6d" x="813.574219"/>
    <use xlink:href="#DejaVuSans-Bold-61" x="917.773438"/>
    <use xlink:href="#DejaVuSans-Bold-74" x="985.253906"/>
    <use xlink:href="#DejaVuSans-Bold-65" x="1033.056641"/>
    <use xlink:href="#DejaVuSans-Bold-2d" x="1100.878906"/>
    <use xlink:href="#DejaVuSans-Bold-48" x="1142.382812"/>
    <use xlink:href="#DejaVuSans-Bold-65" x="1226.074219"/>
    <use xlink:href="#DejaVuSans-Bold-61" x="1293.896484"/>
    <use xlink:href="#DejaVuSans-Bold-6c" x="1361.376953"/>
    <use xlink:href="#DejaVuSans-Bold-74" x="1395.654297"/>
    <use xlink:href="#DejaVuSans-Bold-68" x="1443.457031"/>
    <use xlink:href="#DejaVuSans-Bold-20" x="1514.648438"/>
    <use xlink:href="#DejaVuSans-Bold-45" x="1549.462891"/>
    <use xlink:href="#DejaVuSans-Bold-66" x="1617.773438"/>
    <use xlink:href="#DejaVuSans-Bold-66" x="1661.279297"/>
    <use xlink:href="#DejaVuSans-Bold-65" x="1704.785156"/>
    <use xlink:href="#DejaVuSans-Bold-63" x="1772.607422"/>
    <use xlink:href="#DejaVuSans-Bold-74" x="1831.884766"/>
    <use xlink:href="#DejaVuSans-Bold-73" x="1879.6875"/>
    <use xlink:href="#DejaVuSans-Bold-20" x="1939.208984"/>
    <use xlink:href="#DejaVuSans-Bold-4f" x="1974.023438"/>
    <use xlink:href="#DejaVuSans-Bold-76" x="2059.033203"/>
    <use xlink:href="#DejaVuSans-Bold-65" x="2124.21875"/>
    <use xlink:href="#DejaVuSans-Bold-72" x="2192.041016"/>
    <use xlink:href="#DejaVuSans-Bold-20" x="2241.357422"/>
    <use xlink:href="#DejaVuSans-Bold-41" x="2276.171875"/>
    <use xlink:href="#DejaVuSans-Bold-6c" x="2353.564453"/>
    <use xlink:href="#DejaVuSans-Bold-6c" x="2387.841797"/>
    <use xlink:href="#DejaVuSans-Bold-20" x="2422.119141"/>
    <use xlink:href="#DejaVuSans-Bold-4c" x="2456.933594"/>
    <use xlink:href="#DejaVuSans-Bold-61" x="2520.654297"/>
    <use xlink:href="#DejaVuSans-Bold-67" x="2588.134766"/>
    <use xlink:href="#DejaVuSans-Bold-73" x="2659.716797"/>
   </g>
  </g>
 </g>
 <defs>
  <clipPath id="p724a76046e">
   <rect x="52.079375" y="68.64" width="445.8625" height="318.16"/>
  </clipPath>
  <clipPath id="pff6c73aaf8">
   <rect x="547.506875" y="68.64" width="445.8625" height="318.16"/>
  </clipPath>
 </defs>
</svg>
